<?xml version="1.0" encoding="UTF-8"?>
<svg version="1.1" xmlns="http://www.w3.org/2000/svg" width="206" height="49">
<path d="M0 0 C0 0.66 0 1.32 0 2 C0.66 2 1.32 2 2 2 C2 2.66 2 3.32 2 4 C2.66 4 3.32 4 4 4 C6 7 6 7 6 10 C6.66 10 7.32 10 8 10 C10.78735694 18.36207083 10.72730829 24.61023815 7.21484375 32.72265625 C5.52944231 35.88210654 3.80702112 37.78393069 1 40 C0.34 40 -0.32 40 -1 40 C-1 40.66 -1 41.32 -1 42 C-8.46061585 45.51087805 -16.24054028 46.44710043 -24.33203125 44.4140625 C-31.04227333 41.52879076 -36.23093959 35.46440998 -39.5 29.0625 C-40.92463889 20.33658679 -39.80561677 13.98499948 -36 6 C-35.34 6 -34.68 6 -34 6 C-34 5.34 -34 4.68 -34 4 C-33.34 4 -32.68 4 -32 4 C-32 3.34 -32 2.68 -32 2 C-31.34 2 -30.68 2 -30 2 C-30 1.34 -30 0.68 -30 0 C-18.09890595 -4.90045049 -11.90109405 -4.90045049 0 0 Z " fill="#2D5A82" transform="translate(118,4)"/>
<path d="M0 0 C3.1209346 2.6657983 4.70547014 4.11641043 6 8 C6.66 8 7.32 8 8 8 C11.19049045 14.67450602 11.29662109 23.52197871 9.2421875 30.6171875 C7.46455831 34.32641377 5.23716133 37.41027093 2 40 C1.34 40 0.68 40 0 40 C0 40.66 0 41.32 0 42 C-7.64719531 45.59868015 -15.74141312 46.71062465 -23.91796875 44.05078125 C-31.14289203 40.66776695 -34.88459807 36.3373674 -38 29 C-38.43945103 26.17565908 -38.46525791 23.41651745 -38.4375 20.5625 C-38.4674707 19.47485352 -38.4674707 19.47485352 -38.49804688 18.36523438 C-38.492181 11.83651747 -36.46641325 7.79187809 -32.10546875 2.85546875 C-22.55962873 -5.44610699 -10.90662782 -6.66874679 0 0 Z " fill="#2C5881" transform="translate(38,4)"/>
<path d="M0 0 C0 0.66 0 1.32 0 2 C0.99 2.33 1.98 2.66 3 3 C4.1875 5.5625 4.1875 5.5625 5 8 C5.66 8 6.32 8 7 8 C10.06956632 14.43739011 10.16507957 22.02660586 9 29 C6.77233863 34.6548327 3.60280001 39.38491296 -1.625 42.625 C-8.58124743 45.45902673 -17.02937066 46.42967934 -24.3359375 44.328125 C-26.25 43.5 -26.25 43.5 -29 42 C-29 41.34 -29 40.68 -29 40 C-29.5775 39.773125 -30.155 39.54625 -30.75 39.3125 C-34.70571124 37.00500178 -37.36791696 33.2363199 -39 29 C-39.19235855 26.30980915 -39.27938146 23.74845545 -39.25 21.0625 C-39.25773438 20.35931641 -39.26546875 19.65613281 -39.2734375 18.93164062 C-39.25812118 14.84601282 -38.81163257 11.67358827 -37 8 C-36.34 8 -35.68 8 -35 8 C-34.814375 7.278125 -34.62875 6.55625 -34.4375 5.8125 C-31.88829041 0.82491603 -27.68264612 -1.35753512 -22.5625 -3.3125 C-13.83924563 -4.99593505 -8.10555494 -3.33758145 0 0 Z " fill="#2B5881" transform="translate(197,4)"/>
</svg>
