<?xml version="1.0" encoding="UTF-8"?>
<svg version="1.1" xmlns="http://www.w3.org/2000/svg" width="598" height="675">
<path d="M0 0 C44 0 88 0 132 0 C132 0.33 132 0.66 132 1 C132.60101532 1.05375793 133.20203064 1.10751587 133.82125854 1.16290283 C171.51595647 4.54010814 209.04857264 8.0600999 246.42749023 14.07006836 C247.2294986 14.19794235 248.03150696 14.32581635 248.8578186 14.45756531 C250.35746921 14.69730604 251.85659826 14.9403424 253.35507202 15.18733215 C256.95029953 15.76164956 260.36523052 16.03265374 264 16 C266.00238513 16.65946816 268.00184924 17.32781104 270 18 C272.70733217 18.59704599 275.42486447 19.12103104 278.14672852 19.64770508 C299.8738932 23.86459716 320.22032321 29.87681781 337 45 C337.94939453 45.84498047 337.94939453 45.84498047 338.91796875 46.70703125 C354.48233019 61.37807393 361.4526485 81.93402001 362.12380981 102.86029053 C362.2238491 107.54966892 362.27032561 112.23952488 362.31640625 116.9296875 C362.33729447 118.77033201 362.35838377 120.61097424 362.37965393 122.45161438 C362.43631108 127.52244202 362.48566882 132.59331589 362.53263092 137.66424179 C362.56262509 140.88844597 362.59406626 144.11263376 362.62567139 147.33682251 C363.02482438 188.78589413 363.10880191 230.23527334 363.12211341 271.68599725 C363.123751 276.67202421 363.1267043 281.6580479 363.13081557 286.64407343 C363.1380174 295.40706756 363.13927739 304.17003917 363.13438225 312.9330349 C363.13288605 315.8661668 363.13349494 318.79928513 363.13614082 321.73241615 C363.14707664 335.56832104 363.07854506 349.39195298 362.56591797 363.2199707 C362.52876741 364.23783 362.49161686 365.2556893 362.45334053 366.30439281 C361.34739743 392.6802229 356.22673522 418.61569665 346 443 C345.70931641 443.69963867 345.41863281 444.39927734 345.11914062 445.12011719 C337.63379183 462.80900436 327.14351923 479.16245634 315 494 C314.26394531 494.92683594 313.52789063 495.85367187 312.76953125 496.80859375 C307.93665038 502.83900263 302.82353946 508.55368421 297.56640625 514.2109375 C295.42501785 516.53810845 293.35657371 518.90058615 291.3125 521.3125 C288.5146164 524.54031843 285.47995043 527.2721373 282.22265625 530.02734375 C279.58775036 532.36588061 277.15034401 534.85610264 274.6875 537.375 C270.27304767 541.86911623 265.60811173 545.89466838 260.68359375 549.8203125 C258.03917802 551.96817855 255.5154503 554.20311173 253 556.5 C240.0299931 568.28720753 225.88897764 578.84592887 211.97460938 589.48632812 C209.67190557 591.25150661 207.37532938 593.02454596 205.078125 594.796875 C195.9210423 601.84149549 186.72350002 608.74115645 177.12890625 615.1796875 C174.13601776 617.19653232 171.20102342 619.28661188 168.27351379 621.39709473 C160.11378263 627.27515756 151.79215335 632.87331626 143.375 638.375 C142.67889618 638.83055267 141.98279236 639.28610535 141.26559448 639.75546265 C83.39461448 677.58638545 83.39461448 677.58638545 47.05859375 671.3203125 C37.26431407 668.97300899 28.7783441 664.781682 20 660 C18.7708356 659.34765198 17.54166897 658.69530816 16.3125 658.04296875 C-0.45751375 648.99143591 -16.5878803 638.44793211 -31.96875 627.2109375 C-35.02686266 624.98040688 -38.12826778 622.82789561 -41.25 620.6875 C-55.47268416 610.86625329 -69.34978469 600.60048568 -83 590 C-83.63454102 589.50725586 -84.26908203 589.01451172 -84.92285156 588.50683594 C-91.80624313 583.15068562 -98.62507917 577.72367193 -105.35546875 572.17578125 C-107.14225904 570.70570416 -108.93677139 569.24497028 -110.73828125 567.79296875 C-116.49731936 563.14175127 -122.02899919 558.30804646 -127.484375 553.3046875 C-133.15659508 547.71890895 -133.15659508 547.71890895 -140 544 C-141.40234375 542.5390625 -141.40234375 542.5390625 -142.9375 540.625 C-145.95987188 537.05656933 -149.2142234 533.8714817 -152.6875 530.75 C-162.61960034 521.77856595 -171.67449316 512.5049589 -180 502 C-181.79985842 499.76030907 -183.61535768 497.53407908 -185.4375 495.3125 C-186.26121094 494.29800781 -187.08492187 493.28351563 -187.93359375 492.23828125 C-188.61550781 491.49964844 -189.29742187 490.76101563 -190 490 C-190.66 490 -191.32 490 -192 490 C-192.12383057 489.40977051 -192.24766113 488.81954102 -192.37524414 488.21142578 C-193.36206974 484.7183948 -195.45928838 481.87791904 -197.4375 478.875 C-197.84548828 478.24207031 -198.25347656 477.60914063 -198.67382812 476.95703125 C-200.31328447 474.43767093 -201.86876457 472.13123543 -204 470 C-204.9162367 468.31342416 -205.78359013 466.60012527 -206.625 464.875 C-207.15480469 463.79089844 -207.68460938 462.70679688 -208.23046875 461.58984375 C-208.51583496 461.0057373 -208.80120117 460.42163086 -209.09521484 459.81982422 C-210.01413618 457.97156744 -210.96510543 456.14327305 -211.92578125 454.31640625 C-215.73381699 447.0157328 -219.06611542 439.65936892 -221.9375 431.9375 C-222.23197021 431.15238037 -222.52644043 430.36726074 -222.82983398 429.55834961 C-224.10158822 426.03148709 -225.12674104 422.73488817 -225.56640625 419.00390625 C-225.70949219 418.01261719 -225.85257813 417.02132813 -226 416 C-226.66 415.67 -227.32 415.34 -228 415 C-228.67016602 412.3671875 -228.67016602 412.3671875 -229.25390625 408.875 C-229.46853516 407.61042969 -229.68316406 406.34585937 -229.90429688 405.04296875 C-230.0665979 404.04595947 -230.0665979 404.04595947 -230.23217773 403.02880859 C-230.55687221 401.03456537 -230.89334785 399.04262442 -231.23242188 397.05078125 C-236.76336805 363.99878266 -235.16385992 329.98031918 -235.16725707 296.58357453 C-235.16797461 292.61212385 -235.17006026 288.6406754 -235.17275429 284.66922569 C-235.18151287 271.48472284 -235.18617996 258.300228 -235.18542381 245.11572222 C-235.18538386 244.41100801 -235.1853439 243.7062938 -235.18530273 242.98022461 C-235.18526185 242.27462635 -235.18522097 241.56902809 -235.18517885 240.84204807 C-235.18477126 229.37472016 -235.19438182 217.90742489 -235.2084411 206.44010643 C-235.22285283 194.58978907 -235.22970901 182.73948762 -235.22884732 170.88916129 C-235.22851755 164.26588096 -235.23136941 157.6426309 -235.24202538 151.01935768 C-235.25176359 144.7998755 -235.25174662 138.58046585 -235.24450874 132.36098099 C-235.24347071 130.09319769 -235.24577875 127.82540971 -235.2518692 125.55763435 C-235.32722622 95.53321572 -232.85327606 69.09147548 -210.8828125 46.77734375 C-207.49431688 43.45617654 -204.00678851 40.5497745 -200 38 C-199.24460938 37.50242188 -198.48921875 37.00484375 -197.7109375 36.4921875 C-181.22680585 26.07840274 -155.81136905 17.33593176 -136 18 C-135.67 17.34 -135.34 16.68 -135 16 C-133.05528259 15.63702393 -133.05528259 15.63702393 -130.54272461 15.46582031 C-125.41836006 15.04905297 -120.39281387 14.34860285 -115.31640625 13.546875 C-113.42544101 13.25579117 -111.53432011 12.96571729 -109.64306641 12.67651367 C-108.65381165 12.52524017 -107.66455688 12.37396667 -106.64532471 12.21810913 C-71.28708663 6.84916484 -35.67986678 3.39774431 0 1 C0 0.67 0 0.34 0 0 Z M18 43 C15.90508869 43.02819555 13.80935901 43.00657124 11.71484375 42.95703125 C0.96014606 42.83728379 -9.72724357 43.80752393 -20.4375 44.6875 C-21.53569061 44.77680786 -22.63388123 44.86611572 -23.76535034 44.95812988 C-66.6687428 48.47809825 -109.7167455 54.05526324 -151.8125 63.1875 C-152.81128174 63.40075928 -153.81006348 63.61401855 -154.83911133 63.83374023 C-167.78486032 66.81810096 -179.03508576 71.52289159 -186.8828125 82.67578125 C-192.35409957 92.01925941 -193.30324546 101.37705936 -193.24723816 112.04141235 C-193.24965257 113.10855827 -193.25206699 114.17570418 -193.25455457 115.27518785 C-193.26016057 118.82756506 -193.25155167 122.37975996 -193.24291992 125.93212891 C-193.24399361 128.4888921 -193.24593359 131.04565504 -193.24867249 133.60241699 C-193.25300947 139.81347803 -193.24809328 146.02447216 -193.23882218 152.23552592 C-193.22839615 159.48338133 -193.22850953 166.73122542 -193.22899476 173.97908692 C-193.22949477 186.92405746 -193.22035278 199.86900324 -193.20581055 212.81396484 C-193.19174201 225.34391735 -193.18463911 237.87384808 -193.18530273 250.40380859 C-193.18534269 251.17472775 -193.18538265 251.94564691 -193.18542381 252.73992725 C-193.18546417 253.50957645 -193.18550452 254.27922565 -193.1855461 255.07219756 C-193.18623841 269.3742818 -193.18032952 283.67635688 -193.17139288 297.97843815 C-193.16839208 303.01650571 -193.16731516 308.05457157 -193.16686058 313.09263992 C-193.16610172 319.89378101 -193.15969912 326.69489907 -193.14969444 333.49603271 C-193.14679198 335.98233273 -193.14553946 338.46863534 -193.14612198 340.95493698 C-193.7466073 363.73439612 -193.7466073 363.73439612 -190 386 C-189.86713313 387.5381895 -189.78182658 389.0814108 -189.75 390.625 C-187.38831804 419.43751997 -171.39023295 447.56352903 -153.31982422 469.39501953 C-151.98565746 471.01744134 -150.67964643 472.6592924 -149.37890625 474.30859375 C-146.28576841 478.23706751 -146.28576841 478.23706751 -143 482 C-142.34 482 -141.68 482 -141 482 C-140.62391602 482.86286621 -140.62391602 482.86286621 -140.24023438 483.74316406 C-138.83271173 486.30441196 -137.21829975 488.04057392 -135.15625 490.109375 C-134.40472656 490.86347656 -133.65320313 491.61757813 -132.87890625 492.39453125 C-132.09386719 493.17183594 -131.30882812 493.94914062 -130.5 494.75 C-129.71496094 495.54277344 -128.92992187 496.33554687 -128.12109375 497.15234375 C-127.36957031 497.90128906 -126.61804688 498.65023438 -125.84375 499.421875 C-125.15474609 500.10862305 -124.46574219 500.79537109 -123.75585938 501.50292969 C-122.13092041 503.21626749 -122.13092041 503.21626749 -120 503 C-120 503.66 -120 504.32 -120 505 C-118.55316948 506.50273886 -118.55316948 506.50273886 -116.625 508.0625 C-113.42453655 510.77923786 -110.28693937 513.54335219 -107.1875 516.375 C-102.85272845 520.28622135 -98.39265265 524.00642437 -93.85546875 527.6796875 C-90.85978568 530.11393612 -87.89691579 532.58432084 -84.9375 535.0625 C-76.76259363 541.88548387 -68.4268963 548.49196703 -60 555 C-58.56914062 556.10794922 -58.56914062 556.10794922 -57.109375 557.23828125 C1.62549909 607.95814045 1.62549909 607.95814045 71 630 C97.170754 625.70855916 124.90784756 601.08321518 146 586 C146.75200684 585.46552246 147.50401367 584.93104492 148.27880859 584.38037109 C159.93663283 576.09268542 171.34100276 567.49027686 182.68359375 558.77734375 C184.67066537 557.25269352 186.66184082 555.73377738 188.65625 554.21875 C195.20120783 549.22902967 201.61481753 544.10092879 207.98291016 538.88818359 C211.76356367 535.79772866 215.57730755 532.7625493 219.44506836 529.78198242 C225.89888051 524.80213886 231.94668178 519.52393742 237.8671875 513.921875 C240.08046391 511.83017991 242.35157816 509.82889764 244.6640625 507.84765625 C249.65259165 503.50633909 254.32964247 498.85643143 259.00292969 494.18237305 C260.52002025 492.66750914 262.04499737 491.16087408 263.5703125 489.65429688 C264.53694493 488.690592 265.50310897 487.72641702 266.46875 486.76171875 C267.33951172 485.89506592 268.21027344 485.02841309 269.10742188 484.13549805 C271.22108617 482.22611233 271.22108617 482.22611233 271 480 C271.66 480 272.32 480 273 480 C276.25704191 476.55684141 279.09658124 472.74306476 282 469 C282.43554199 468.44328613 282.87108398 467.88657227 283.31982422 467.31298828 C314.70811316 426.90732355 321.3520697 383.8899034 321.25878906 333.73876953 C321.26150851 331.23226826 321.26507472 328.7257678 321.26940918 326.2192688 C321.27748736 320.1935566 321.27643835 314.16791403 321.2705839 308.14220478 C321.26602402 303.24208578 321.2654729 298.34198072 321.26763153 293.4418602 C321.267938 292.73835513 321.26824446 292.03485007 321.26856022 291.31002667 C321.26919979 289.88002333 321.26984822 288.45001999 321.2705054 287.02001666 C321.27617113 273.69895201 321.26970733 260.37791516 321.25890467 247.05685507 C321.24994504 235.65523984 321.25154828 224.2536653 321.26074219 212.85205078 C321.27146429 199.54938365 321.27565083 186.24674059 321.26951766 172.94406974 C321.26888066 171.52428619 321.26825192 170.10450264 321.26763153 168.68471909 C321.26732298 167.98646508 321.26701443 167.28821108 321.26669653 166.56879786 C321.26497745 161.67393267 321.26786702 156.77908292 321.27259064 151.88422012 C321.27880987 145.29626867 321.27433417 138.70838198 321.26280212 132.12043381 C321.26016672 129.7098427 321.26090141 127.2992451 321.26532745 124.88865662 C321.27082775 121.58796731 321.26389504 118.28752094 321.25396729 114.98684692 C321.26065945 113.57175659 321.26065945 113.57175659 321.26748681 112.12807858 C321.19341206 99.35111007 319.31506324 87.13520132 310.59375 77.28125 C306.13964762 73.04180316 303.26055969 70.6096766 297 70 C297 69.34 297 68.68 297 68 C288.94141274 65.14113951 280.93981508 62.88972177 272.5625 61.1875 C271.33861572 60.93814697 270.11473145 60.68879395 268.85375977 60.43188477 C221.75824177 51.03382895 173.89337112 45.95117064 126 43 C125.27363972 42.9544397 124.54727943 42.90887939 123.79890823 42.86193848 C111.4208129 42.09823237 99.09106898 41.85107539 86.69140625 41.8671875 C84.82242317 41.8665115 82.95344018 41.86553902 81.0844574 41.86428833 C77.21311588 41.86283075 73.34179775 41.86490615 69.47045898 41.86962891 C64.51094279 41.87538551 59.55148002 41.87199797 54.59196568 41.86605644 C50.75302219 41.86244901 46.91409149 41.86358923 43.07514763 41.86618423 C41.24470959 41.86684991 39.41427037 41.86603768 37.58383369 41.86370468 C35.04096491 41.86116869 32.49818445 41.86502944 29.95532227 41.87060547 C28.82944954 41.86756912 28.82944954 41.86756912 27.68083191 41.86447144 C24.29004689 41.87826372 21.25574044 42.04250752 18 43 Z " fill="#22507A" transform="translate(235,0)"/>
<path d="M0 0 C1.0003125 0.42796875 2.000625 0.8559375 3.03125 1.296875 C29.18781443 13.25014369 49.28663276 36.3264925 59.875 62.75 C64.63308662 76.00701375 66.11024808 88.69383196 66.31640625 102.69140625 C66.33718735 103.87725815 66.35796844 105.06311005 66.37937927 106.28489685 C66.444357 110.04404337 66.50351729 113.80325512 66.5625 117.5625 C66.60573454 120.12305341 66.64935035 122.68360041 66.69335938 125.24414062 C66.79998477 131.49602637 66.90184385 137.74797586 67 144 C67.7565387 144.12760712 68.51307739 144.25521423 69.2925415 144.38668823 C70.28429382 144.55927155 71.27604614 144.73185486 72.29785156 144.90966797 C73.28126526 145.07852509 74.26467896 145.2473822 75.27789307 145.4213562 C83.85874466 147.24540525 91.11912091 153.94700194 96 161 C102.0225567 170.87304377 104.4640619 181.17008398 104.38818359 192.64941406 C104.39606903 194.15186928 104.39606903 194.15186928 104.40411377 195.68467712 C104.41720471 198.96182337 104.40861166 202.23847469 104.3984375 205.515625 C104.400462 207.81809582 104.40337655 210.12056602 104.40713501 212.42303467 C104.41154419 217.23765191 104.40517498 222.05210155 104.39111328 226.86669922 C104.37406115 233.00029042 104.38384668 239.13348655 104.40183067 245.26706314 C104.41273957 250.02008976 104.4091891 254.7730248 104.4014473 259.52605438 C104.39946287 261.78560179 104.40184189 264.04515783 104.40888596 266.30469513 C104.47802957 294.72401565 98.57690519 321.11711852 78 342 C77.34 342 76.68 342 76 342 C76 342.66 76 343.32 76 344 C50.59979112 367.57456887 20.43358121 370.33052471 -12.71450734 370.26865101 C-16.33005513 370.26352212 -19.94559369 370.26830121 -23.56114197 370.27142334 C-29.62712454 370.27504273 -35.69305811 370.27031706 -41.7590332 370.26074219 C-48.73517279 370.24985664 -55.71119544 370.25339216 -62.68733221 370.264395 C-68.71838687 370.27352019 -74.74940668 370.27472791 -80.78046602 370.26951766 C-84.36446223 370.26642715 -87.94840379 370.26590705 -91.53239632 370.27259064 C-95.53216413 370.27953121 -99.53173561 370.26986657 -103.53149414 370.25878906 C-104.69189209 370.26283752 -105.85229004 370.26688599 -107.04785156 370.27105713 C-134.87268394 370.12946072 -158.47904638 360.6649681 -178.55859375 341.56640625 C-211.62293037 306.66834559 -205.34425868 257.33573147 -205 213 C-204.9937561 212.10075806 -204.98751221 211.20151611 -204.9810791 210.27502441 C-204.94616254 205.5768562 -204.88923089 200.88014224 -204.79046631 196.18286133 C-204.7515688 194.20477905 -204.72919662 192.22639281 -204.70751953 190.24804688 C-204.34448388 176.87533083 -200.31766616 163.67696771 -190.375 154.25 C-180.87424676 146.55457223 -171.31807078 143.80033184 -159.24829102 143.92211914 C-158.12069901 143.9265783 -158.12069901 143.9265783 -156.97032738 143.93112755 C-155.32918202 143.93769761 -153.68804394 143.94634039 -152.04691887 143.95681572 C-147.45204829 143.98475079 -142.85715 143.99290229 -138.26220703 144.00048828 C-136.78560372 144.00309552 -136.78560372 144.00309552 -135.27917004 144.00575542 C-123.44430041 144.01683632 -111.61128649 143.88070663 -99.77734375 143.74609375 C-97.48751969 143.72111578 -95.19769423 143.69626519 -92.90786743 143.67153931 C-83.57450274 143.57000523 -74.24117498 143.4662729 -64.90795898 143.35180664 C-35.91116963 142.99907105 -6.98377026 142.98369516 22 144 C22.07498943 137.72357703 22.12899314 131.44742336 22.16479492 125.1706543 C22.17974337 123.04202727 22.20010955 120.91343028 22.22631836 118.78491211 C22.53241985 93.25844873 18.80688339 71.34957204 0.625 52.125 C-13.79484336 38.4798796 -32.90684714 32.39748103 -52.52001953 32.58276367 C-71.46195507 33.26278559 -88.72439935 40.4346541 -102 54 C-103.3303125 55.175625 -103.3303125 55.175625 -104.6875 56.375 C-116.19595792 69.43865494 -120.82705772 85.0175776 -122.125 102 C-122.41375 105.63 -122.7025 109.26 -123 113 C-137.52 113 -152.04 113 -167 113 C-167 77.29086827 -158.85752816 48.88252974 -133.9375 22.5625 C-98.52157846 -11.76370088 -44.65662105 -20.27984167 0 0 Z M-160 188 C-161.64638027 191.29276054 -161.15633589 194.95380608 -161.16113281 198.57373047 C-161.16609772 199.46182907 -161.17106262 200.34992767 -161.17617798 201.26493835 C-161.19083045 204.21569588 -161.19760994 207.16639949 -161.203125 210.1171875 C-161.20887793 212.17066448 -161.21463565 214.22414145 -161.22039795 216.27761841 C-161.23091944 220.59361013 -161.23675326 224.90958319 -161.24023438 229.22558594 C-161.24569381 234.7308218 -161.26966205 240.23580715 -161.29820633 245.74096489 C-161.31692939 249.98945813 -161.32204363 254.2378925 -161.32357025 258.48642349 C-161.32658015 260.51401246 -161.33455186 262.54160081 -161.34775543 264.56914902 C-161.44858952 281.257191 -160.59729 297.4661055 -148.65234375 310.4140625 C-135.14514041 323.37842315 -119.48609612 326.15231868 -101.42456055 326.14526367 C-99.56199615 326.15030159 -99.56199615 326.15030159 -97.6618042 326.15544128 C-94.27526489 326.1632824 -90.88878692 326.16661702 -87.5022428 326.16725707 C-85.38076821 326.16797075 -83.25929994 326.17011107 -81.13782692 326.17275429 C-73.72054261 326.18198917 -66.3032762 326.1860915 -58.88598633 326.18530273 C-51.99798605 326.18470243 -45.1100642 326.19524975 -38.22208375 326.2110464 C-32.28633945 326.22416877 -26.35062065 326.22948467 -20.41486198 326.22884732 C-16.87947405 326.22859372 -13.34415591 326.23136842 -9.80878258 326.24202538 C-5.86036556 326.25360397 -1.91205421 326.2489309 2.03637695 326.24291992 C3.76757027 326.25134918 3.76757027 326.25134918 5.53373718 326.25994873 C22.00503249 326.19650561 35.74837488 322.13633996 47.8125 310.44921875 C60.468549 296.27896388 61.4955602 280.19413883 61 262 C60.67 261.67 60.34 261.34 60 261 C60.33 261 60.66 261 61 261 C61 260.43037033 61 259.86074066 61 259.27384949 C61 211.86075949 61 211.86075949 61.0703125 207.76171875 C61.08891394 206.07031655 61.1071285 204.37891007 61.125 202.6875 C61.15013672 201.42389648 61.15013672 201.42389648 61.17578125 200.13476562 C61.2132994 195.33619478 60.8687762 191.510078 59 187 C57.68 187.66 56.36 188.32 55 189 C55 188.34 55 187.68 55 187 C51.84234427 185.42117214 48.45311607 185.85949891 44.98603821 185.86628723 C44.14805653 185.86402167 43.31007486 185.86175612 42.4466998 185.85942191 C39.62241173 185.85306249 36.79817141 185.85391252 33.97387695 185.85473633 C31.9554081 185.85174597 29.93693981 185.84834373 27.91847229 185.84455872 C22.42242518 185.83570007 16.92639361 185.83337977 11.43034005 185.83274293 C6.84546722 185.83179496 2.26059803 185.8281178 -2.32427341 185.82457083 C-13.14253505 185.81641852 -23.96078837 185.81398724 -34.77905273 185.81469727 C-45.94204307 185.81529767 -57.10498502 185.80475509 -68.26796311 185.7889536 C-77.84595521 185.77587833 -87.42393149 185.77051339 -97.00193244 185.77115268 C-102.72485891 185.77140775 -108.44774243 185.76855167 -114.17066002 185.75797462 C-119.55584557 185.74829438 -124.94094713 185.74821402 -130.32613564 185.75549126 C-132.30180611 185.75653732 -134.2774818 185.75417294 -136.25314331 185.7481308 C-138.9525676 185.7404107 -141.65170193 185.74505593 -144.35112 185.75276184 C-145.52079182 185.7450465 -145.52079182 185.7450465 -146.71409339 185.73717529 C-151.49667895 185.76729254 -155.49264833 186.34506542 -160 188 Z " fill="#204F7A" transform="translate(349,122)"/>
<path d="M0 0 C-0.33 0.66 -0.66 1.32 -1 2 C-48.52 2 -96.04 2 -145 2 C-145 1.34 -145 0.68 -145 0 C-132.29593212 -0.15651511 -119.5917932 -0.30458759 -106.88751411 -0.4429636 C-100.98322421 -0.50751583 -95.07898909 -0.57457744 -89.17480469 -0.64819336 C-59.42320732 -1.01702299 -29.73970033 -0.9799554 0 0 Z " fill="#2F3440" transform="translate(372,266)"/>
<path d="M0 0 C0.87265765 -0.00226556 1.74531529 -0.00453111 2.64441711 -0.00686532 C5.56779321 -0.01319432 8.49112281 -0.01237668 11.414505 -0.0115509 C13.51049357 -0.01454296 15.60648158 -0.01794559 17.70246887 -0.02172852 C23.39427726 -0.03056498 29.08607062 -0.0329064 34.7778852 -0.0335443 C39.52492616 -0.03449336 44.2719636 -0.03817137 49.01900321 -0.0417164 C60.21154859 -0.04985854 71.40408592 -0.05230074 82.59663391 -0.05158997 C94.15911573 -0.05098826 105.72155104 -0.06155904 117.28402108 -0.07733363 C127.20169536 -0.09038419 137.11935438 -0.09577496 147.03703719 -0.09513456 C152.9648803 -0.09487897 158.89268201 -0.09776405 164.82051659 -0.10831261 C170.38957926 -0.11795261 175.9585606 -0.11810113 181.52762604 -0.11079597 C183.57635173 -0.10974522 185.62508238 -0.11214187 187.67379951 -0.11815643 C190.46020207 -0.12580988 193.24631898 -0.12127619 196.03271484 -0.11352539 C196.85225055 -0.11866895 197.67178625 -0.12381252 198.51615638 -0.12911195 C204.09761005 -0.09455913 204.09761005 -0.09455913 206.32588196 2.13371277 C206.45088196 5.25871277 206.45088196 5.25871277 206.32588196 8.13371277 C206.01650696 7.49433777 205.70713196 6.85496277 205.38838196 6.19621277 C204.49136565 4.19760456 204.49136565 4.19760456 203.32588196 3.13371277 C202.33588196 3.46371277 201.34588196 3.79371277 200.32588196 4.13371277 C200.32588196 3.47371277 200.32588196 2.81371277 200.32588196 2.13371277 C129.70588196 2.13371277 59.08588196 2.13371277 -13.67411804 2.13371277 C-13.67411804 1.80371277 -13.67411804 1.47371277 -13.67411804 1.13371277 C-9.12674601 -0.00818436 -4.65652985 -0.00887146 0 0 Z " fill="#38648B" transform="translate(203.6741180419922,306.8662872314453)"/>
<path d="M0 0 C0.33 0 0.66 0 1 0 C1 33.99 1 67.98 1 103 C0.67 103 0.34 103 0 103 C-0.02505615 101.87432617 -0.0501123 100.74865234 -0.07592773 99.58886719 C-0.17241972 95.27680228 -0.27136117 90.96479612 -0.37094116 86.65280151 C-0.41536751 84.71525467 -0.4591689 82.7776934 -0.50234985 80.84011841 C-0.8048834 66.98415203 -0.8048834 66.98415203 -1.359375 53.13671875 C-2.24468822 35.28839839 -1.37306845 17.79442927 0 0 Z " fill="#263548" transform="translate(146,303)"/>
<path d="M0 0 C0.66 0.33 1.32 0.66 2 1 C-4.49888593 8.17914315 -11.07301909 15.22695199 -18 22 C-18.33 21.01 -18.66 20.02 -19 19 C-13.0763504 12.14630879 -6.85369121 5.9236496 0 0 Z " fill="#58697D" transform="translate(225,136)"/>
<path d="M0 0 C0.33 0 0.66 0 1 0 C1.02505615 1.24612061 1.0501123 2.49224121 1.07592773 3.77612305 C1.17022911 8.40740926 1.2703941 13.03855344 1.37231445 17.66967773 C1.41557739 19.67257358 1.45725847 21.67550425 1.49731445 23.6784668 C1.55522662 26.56049079 1.61886047 29.44234088 1.68359375 32.32421875 C1.70030624 33.21711105 1.71701874 34.11000336 1.73423767 35.029953 C1.8322645 39.16081495 2.12755314 42.95005936 3 47 C2.5625 50.3125 2.5625 50.3125 2 53 C1.67 53 1.34 53 1 53 C-0.05309891 46.74335352 -0.32901386 40.52237304 -0.5625 34.1875 C-0.6042334 33.08905762 -0.6459668 31.99061523 -0.68896484 30.85888672 C-0.9294501 24.11450221 -1.10177452 17.37376201 -1.125 10.625 C-1.12959229 9.88918701 -1.13418457 9.15337402 -1.13891602 8.39526367 C-1.12972655 5.31826272 -0.98101199 2.94303598 0 0 Z " fill="#2B5880" transform="translate(145,364)"/>
<path d="M0 0 C0.99 0.33 1.98 0.66 3 1 C-1.62 5.62 -6.24 10.24 -11 15 C-11.33 14.01 -11.66 13.02 -12 12 C-10.56665422 10.37133456 -9.12817021 8.74719006 -7.6875 7.125 C-6.88699219 6.22007813 -6.08648437 5.31515625 -5.26171875 4.3828125 C-3 2 -3 2 0 0 Z " fill="#4A5D72" transform="translate(29,43)"/>
<path d="M0 0 C0.70382812 0.09667969 1.40765625 0.19335938 2.1328125 0.29296875 C3.75647492 0.51975561 5.37846156 0.75849427 7 1 C7 1.66 7 2.32 7 3 C8.32 3.33 9.64 3.66 11 4 C2.28446396 3.31145453 -6.34331879 2.20329037 -15 1 C-15 0.67 -15 0.34 -15 0 C-9.74598268 -1.21246554 -5.25571998 -0.75471411 0 0 Z " fill="#7B8390" transform="translate(454,50)"/>
<path d="M0 0 C3.96 0 7.92 0 12 0 C12 0.66 12 1.32 12 2 C11.07767578 2.09087891 11.07767578 2.09087891 10.13671875 2.18359375 C9.32847656 2.26738281 8.52023438 2.35117187 7.6875 2.4375 C6.88699219 2.51871094 6.08648437 2.59992188 5.26171875 2.68359375 C2.83912821 2.95265693 2.83912821 2.95265693 0 4 C-2.06587115 3.91426773 -4.12946525 3.76166465 -6.1875 3.5625 C-7.81751953 3.40974609 -7.81751953 3.40974609 -9.48046875 3.25390625 C-10.72763672 3.12822266 -10.72763672 3.12822266 -12 3 C-12 2.67 -12 2.34 -12 2 C-6.06 1.505 -6.06 1.505 0 1 C0 0.67 0 0.34 0 0 Z " fill="#C3C7CD" transform="translate(235,0)"/>
<path d="M0 0 C-2.26807204 1.0067004 -4.53907754 2.00551766 -6.8125 3 C-7.77639648 3.42925781 -7.77639648 3.42925781 -8.75976562 3.8671875 C-11.67756469 5.13711041 -13.78265714 6 -17 6 C-17 5.34 -17 4.68 -17 4 C-14.92227529 3.13227971 -12.83756823 2.28126381 -10.75 1.4375 C-9.58984375 0.96183594 -8.4296875 0.48617188 -7.234375 -0.00390625 C-4.13733356 -0.95770524 -2.92678299 -1.20983356 0 0 Z " fill="#6C737E" transform="translate(404,481)"/>
<path d="M0 0 C0.66 0 1.32 0 2 0 C3.32 3.63 4.64 7.26 6 11 C5.34 11.66 4.68 12.32 4 13 C3.32694982 11.39850114 2.66177773 9.79368971 2 8.1875 C1.62875 7.29417969 1.2575 6.40085937 0.875 5.48046875 C0 3 0 3 0 0 Z " fill="#606671" transform="translate(14,431)"/>
<path d="M0 0 C0.66 0 1.32 0 2 0 C2.83819158 1.62249941 3.6704116 3.24808497 4.5 4.875 C4.9640625 5.77992188 5.428125 6.68484375 5.90625 7.6171875 C7 10 7 10 7 12 C4 11 4 11 2.83203125 9.2578125 C2.49558594 8.55398438 2.15914062 7.85015625 1.8125 7.125 C1.46832031 6.42632812 1.12414063 5.72765625 0.76953125 5.0078125 C0 3 0 3 0 0 Z " fill="#5E6773" transform="translate(57,432)"/>
<path d="M0 0 C1.32 0.33 2.64 0.66 4 1 C1.69 3.31 -0.62 5.62 -3 8 C-3.99 7.67 -4.98 7.34 -6 7 C-4.02 4.69 -2.04 2.38 0 0 Z " fill="#4F6379" transform="translate(159,276)"/>
<path d="M0 0 C3.43950364 0.61198376 5.51564485 1.92058847 8.25 4.0625 C8.95640625 4.61035156 9.6628125 5.15820312 10.390625 5.72265625 C11.18726563 6.35494141 11.18726563 6.35494141 12 7 C11.01 7.33 10.02 7.66 9 8 C6.73828125 6.6015625 6.73828125 6.6015625 4.3125 4.625 C3.50425781 3.97789062 2.69601563 3.33078125 1.86328125 2.6640625 C1.24839844 2.11492188 0.63351563 1.56578125 0 1 C0 0.67 0 0.34 0 0 Z " fill="#58616E" transform="translate(171,553)"/>
<path d="M0 0 C1 1 1 1 1.0625 4.0625 C1.041875 5.031875 1.02125 6.00125 1 7 C0.690625 6.360625 0.38125 5.72125 0.0625 5.0625 C-0.8345163 3.06389179 -0.8345163 3.06389179 -2 2 C-2.99 2.33 -3.98 2.66 -5 3 C-5 2.34 -5 1.68 -5 1 C-5.66 0.67 -6.32 0.34 -7 0 C-3.86350275 -1.04549908 -3.0051095 -1.00170317 0 0 Z " fill="#B0B5BC" transform="translate(409,308)"/>
<path d="M0 0 C0.66 0.33 1.32 0.66 2 1 C1.54917531 2.46067199 1.08906463 3.91848032 0.625 5.375 C0.36976563 6.18710937 0.11453125 6.99921875 -0.1484375 7.8359375 C-1 10 -1 10 -3 12 C-2.49202991 7.6822542 -1.80317221 3.96697886 0 0 Z " fill="#686F7A" transform="translate(582,433)"/>
<path d="M0 0 C3 1 3 1 4.1875 3.25 C4.99938294 5.99791147 5.16260121 8.15447889 5 11 C2.03947516 7.63576723 1.07710178 4.30840713 0 0 Z " fill="#787D86" transform="translate(150,429)"/>
<path d="M0 0 C-1.49097658 3.7952131 -3.75700849 5.61042731 -7 8 C-6.44414399 4.1090079 -4.34122117 0 0 0 Z " fill="#65696F" transform="translate(57,72)"/>
<path d="M0 0 C0.66 0 1.32 0 2 0 C2.99 2.97 3.98 5.94 5 9 C4.34 9 3.68 9 3 9 C0 3.375 0 3.375 0 0 Z " fill="#5A6572" transform="translate(189,415)"/>
<path d="M0 0 C2.43773135 2.43773135 2.61487376 3.61088906 3 7 C2.5625 10.3125 2.5625 10.3125 2 13 C1.67 13 1.34 13 1 13 C0.67 8.71 0.34 4.42 0 0 Z " fill="#8A929C" transform="translate(145,404)"/>
<path d="M0 0 C2.32472205 2.85306797 3.7508258 5.54074837 5 9 C4.34 9.66 3.68 10.32 3 11 C0 4.5 0 4.5 0 0 Z " fill="#596575" transform="translate(364,190)"/>
<path d="M0 0 C-1.32 0.33 -2.64 0.66 -4 1 C-4 1.66 -4 2.32 -4 3 C-6.31 3.33 -8.62 3.66 -11 4 C-3.77464789 -1.88732394 -3.77464789 -1.88732394 0 0 Z " fill="#80868F" transform="translate(56,29)"/>
<path d="M0 0 C0 0.66 0 1.32 0 2 C-5.41176471 6 -5.41176471 6 -8 6 C-6.72879117 2.18637351 -4.19078006 0 0 0 Z " fill="#535E6B" transform="translate(373,640)"/>
<path d="M0 0 C4.40114397 0.50298788 6.71195019 2.08772731 10 5 C6.05140217 4.4359146 3.29120954 3.2568294 0 1 C0 0.67 0 0.34 0 0 Z " fill="#545F6E" transform="translate(256,613)"/>
<path d="M0 0 C2.31 1.98 4.62 3.96 7 6 C6.34 6.66 5.68 7.32 5 8 C4.731875 7.360625 4.46375 6.72125 4.1875 6.0625 C3.11332248 3.66868314 3.11332248 3.66868314 0 3 C0 2.01 0 1.02 0 0 Z " fill="#6A6E76" transform="translate(102,492)"/>
<path d="M0 0 C0.66 0 1.32 0 2 0 C0.90931332 3.77545388 0.0916909 6.47043472 -3 9 C-2.5020163 5.26512223 -2.12508244 3.18762365 0 0 Z " fill="#6B737E" transform="translate(573,454)"/>
<path d="M0 0 C2.31 0 4.62 0 7 0 C7 0.33 7 0.66 7 1 C4.69 1 2.38 1 0 1 C0 0.67 0 0.34 0 0 Z " fill="#FDFDFD" transform="translate(269,43)"/>
<path d="M0 0 C1.98 0 3.96 0 6 0 C6 0.33 6 0.66 6 1 C4.02 1 2.04 1 0 1 C0 0.67 0 0.34 0 0 Z " fill="#FDFDFD" transform="translate(227,0)"/>
<path d="M0 0 C0.66 0.33 1.32 0.66 2 1 C1.34 1.66 0.68 2.32 0 3 C0 2.01 0 1.02 0 0 Z " fill="#FEFEFE" transform="translate(364,200)"/>
<path d="M0 0 C1.65 0 3.3 0 5 0 C5 0.33 5 0.66 5 1 C3.35 1 1.7 1 0 1 C0 0.67 0 0.34 0 0 Z " fill="#FDFDFD" transform="translate(321,43)"/>
<path d="M0 0 C0.99 0 1.98 0 3 0 C2.67 0.66 2.34 1.32 2 2 C1.34 1.34 0.68 0.68 0 0 Z " fill="#FDFDFD" transform="translate(269,618)"/>
<path d="M0 0 C1 4 1 4 1 4 Z " fill="#FEFEFE" transform="translate(143,401)"/>
<path d="M0 0 C4 1 4 1 4 1 Z " fill="#FEFEFE" transform="translate(167,51)"/>
<path d="M0 0 C0.99 0 1.98 0 3 0 C2.67 0.66 2.34 1.32 2 2 C1.34 1.34 0.68 0.68 0 0 Z " fill="#FEFEFE" transform="translate(244,44)"/>
<path d="M0 0 C4 1 4 1 4 1 Z " fill="#FEFEFE" transform="translate(328,43)"/>
<path d="M0 0 C0.66 0 1.32 0 2 0 C1.67 0.66 1.34 1.32 1 2 C0.67 1.34 0.34 0.68 0 0 Z " fill="#FEFEFE" transform="translate(191,622)"/>
<path d="" fill="#FDFDFD" transform="translate(0,0)"/>
<path d="M0 0 C3 1 3 1 3 1 Z " fill="#FEFEFE" transform="translate(252,493)"/>
<path d="" fill="#FEFEFE" transform="translate(0,0)"/>
<path d="" fill="#FEFEFE" transform="translate(0,0)"/>
<path d="M0 0 C3 1 3 1 3 1 Z " fill="#FEFEFE" transform="translate(331,264)"/>
<path d="M0 0 C0.33 0.66 0.66 1.32 1 2 C0.34 1.67 -0.32 1.34 -1 1 C-0.67 0.67 -0.34 0.34 0 0 Z " fill="#FEFEFE" transform="translate(367,206)"/>
<path d="M0 0 C0.99 0.495 0.99 0.495 2 1 C1.01 1.495 1.01 1.495 0 2 C0 1.34 0 0.68 0 0 Z " fill="#FEFEFE" transform="translate(187,181)"/>
<path d="M0 0 C3 1 3 1 3 1 Z " fill="#FDFDFD" transform="translate(315,157)"/>
<path d="M0 0 C3 1 3 1 3 1 Z " fill="#FDFDFD" transform="translate(297,155)"/>
<path d="M0 0 C3 1 3 1 3 1 Z " fill="#FDFDFD" transform="translate(502,62)"/>
<path d="M0 0 C3 1 3 1 3 1 Z " fill="#FEFEFE" transform="translate(450,53)"/>
<path d="M0 0 C3 1 3 1 3 1 Z " fill="#FDFDFD" transform="translate(433,51)"/>
<path d="M0 0 C3 1 3 1 3 1 Z " fill="#FEFEFE" transform="translate(206,47)"/>
<path d="M0 0 C3 1 3 1 3 1 Z " fill="#FDFDFD" transform="translate(371,45)"/>
<path d="M0 0 C3 1 3 1 3 1 Z " fill="#FDFDFD" transform="translate(228,45)"/>
<path d="M0 0 C3 1 3 1 3 1 Z " fill="#FEFEFE" transform="translate(381,1)"/>
<path d="" fill="#FEFEFE" transform="translate(0,0)"/>
<path d="M0 0 C2 1 2 1 2 1 Z " fill="#FEFEFE" transform="translate(204,629)"/>
<path d="" fill="#FDFDFD" transform="translate(0,0)"/>
<path d="M0 0 C2 1 2 1 2 1 Z " fill="#FDFDFD" transform="translate(356,600)"/>
<path d="M0 0 C2 1 2 1 2 1 Z " fill="#FEFEFE" transform="translate(158,598)"/>
<path d="" fill="#FEFEFE" transform="translate(0,0)"/>
<path d="" fill="#FEFEFE" transform="translate(0,0)"/>
<path d="M0 0 C2 1 2 1 2 1 Z " fill="#FEFEFE" transform="translate(338,493)"/>
<path d="M0 0 C2 1 2 1 2 1 Z " fill="#FEFEFE" transform="translate(324,493)"/>
<path d="M0 0 C2 1 2 1 2 1 Z " fill="#FDFDFD" transform="translate(367,492)"/>
<path d="M0 0 C2 1 2 1 2 1 Z " fill="#FEFEFE" transform="translate(218,491)"/>
<path d="M0 0 C2 1 2 1 2 1 Z " fill="#FDFDFD" transform="translate(151,438)"/>
<path d="" fill="#FDFDFD" transform="translate(0,0)"/>
<path d="" fill="#FDFDFD" transform="translate(0,0)"/>
<path d="M0 0 C2 1 2 1 2 1 Z " fill="#FDFDFD" transform="translate(147,433)"/>
<path d="" fill="#FDFDFD" transform="translate(0,0)"/>
<path d="" fill="#FDFDFD" transform="translate(0,0)"/>
<path d="" fill="#FEFEFE" transform="translate(0,0)"/>
<path d="" fill="#FDFDFD" transform="translate(0,0)"/>
<path d="" fill="#FDFDFD" transform="translate(0,0)"/>
<path d="" fill="#FEFEFE" transform="translate(0,0)"/>
<path d="" fill="#FEFEFE" transform="translate(0,0)"/>
<path d="" fill="#FEFEFE" transform="translate(0,0)"/>
<path d="M0 0 C2 1 2 1 2 1 Z " fill="#FEFEFE" transform="translate(326,310)"/>
<path d="M0 0 C2 1 2 1 2 1 Z " fill="#FEFEFE" transform="translate(318,310)"/>
<path d="M0 0 C2 1 2 1 2 1 Z " fill="#FEFEFE" transform="translate(286,310)"/>
<path d="M0 0 C2 1 2 1 2 1 Z " fill="#FEFEFE" transform="translate(254,310)"/>
<path d="M0 0 C2 1 2 1 2 1 Z " fill="#FEFEFE" transform="translate(204,310)"/>
<path d="M0 0 C2 1 2 1 2 1 Z " fill="#FEFEFE" transform="translate(160,273)"/>
<path d="M0 0 C2 1 2 1 2 1 Z " fill="#FEFEFE" transform="translate(305,264)"/>
<path d="" fill="#FEFEFE" transform="translate(0,0)"/>
<path d="" fill="#FEFEFE" transform="translate(0,0)"/>
<path d="" fill="#FEFEFE" transform="translate(0,0)"/>
<path d="" fill="#FEFEFE" transform="translate(0,0)"/>
<path d="" fill="#FEFEFE" transform="translate(0,0)"/>
<path d="" fill="#FEFEFE" transform="translate(0,0)"/>
<path d="M0 0 C2 1 2 1 2 1 Z " fill="#FEFEFE" transform="translate(323,112)"/>
<path d="M0 0 C2 1 2 1 2 1 Z " fill="#FDFDFD" transform="translate(272,112)"/>
<path d="M0 0 C2 1 2 1 2 1 Z " fill="#FEFEFE" transform="translate(548,85)"/>
<path d="" fill="#FEFEFE" transform="translate(0,0)"/>
<path d="M0 0 C2 1 2 1 2 1 Z " fill="#FEFEFE" transform="translate(73,67)"/>
<path d="M0 0 C2 1 2 1 2 1 Z " fill="#FDFDFD" transform="translate(382,46)"/>
<path d="M0 0 C2 1 2 1 2 1 Z " fill="#FDFDFD" transform="translate(214,46)"/>
<path d="M0 0 C2 1 2 1 2 1 Z " fill="#FDFDFD" transform="translate(314,43)"/>
<path d="M0 0 C2 1 2 1 2 1 Z " fill="#FEFEFE" transform="translate(289,43)"/>
<path d="M0 0 C2 1 2 1 2 1 Z " fill="#FDFDFD" transform="translate(265,43)"/>
<path d="M0 0 C2 1 2 1 2 1 Z " fill="#FEFEFE" transform="translate(59,24)"/>
<path d="M0 0 C2 1 2 1 2 1 Z " fill="#FEFEFE" transform="translate(94,16)"/>
<path d="M0 0 C2 1 2 1 2 1 Z " fill="#FDFDFD" transform="translate(369,0)"/>
<path d="" fill="#FEFEFE" transform="translate(0,0)"/>
<path d="" fill="#FEFEFE" transform="translate(0,0)"/>
<path d="" fill="#FEFEFE" transform="translate(0,0)"/>
<path d="" fill="#FEFEFE" transform="translate(0,0)"/>
<path d="" fill="#FEFEFE" transform="translate(0,0)"/>
<path d="" fill="#FEFEFE" transform="translate(0,0)"/>
<path d="" fill="#FEFEFE" transform="translate(0,0)"/>
<path d="" fill="#FEFEFE" transform="translate(0,0)"/>
<path d="" fill="#FEFEFE" transform="translate(0,0)"/>
<path d="" fill="#FDFDFD" transform="translate(0,0)"/>
<path d="" fill="#FEFEFE" transform="translate(0,0)"/>
<path d="" fill="#FEFEFE" transform="translate(0,0)"/>
<path d="" fill="#FEFEFE" transform="translate(0,0)"/>
<path d="" fill="#FEFEFE" transform="translate(0,0)"/>
<path d="" fill="#FEFEFE" transform="translate(0,0)"/>
<path d="" fill="#FEFEFE" transform="translate(0,0)"/>
<path d="" fill="#FEFEFE" transform="translate(0,0)"/>
<path d="" fill="#FEFEFE" transform="translate(0,0)"/>
<path d="" fill="#FEFEFE" transform="translate(0,0)"/>
<path d="" fill="#FEFEFE" transform="translate(0,0)"/>
<path d="" fill="#FEFEFE" transform="translate(0,0)"/>
<path d="" fill="#FEFEFE" transform="translate(0,0)"/>
<path d="" fill="#FEFEFE" transform="translate(0,0)"/>
<path d="" fill="#FEFEFE" transform="translate(0,0)"/>
<path d="" fill="#FEFEFE" transform="translate(0,0)"/>
<path d="" fill="#FEFEFE" transform="translate(0,0)"/>
<path d="" fill="#FEFEFE" transform="translate(0,0)"/>
<path d="" fill="#FEFEFE" transform="translate(0,0)"/>
<path d="" fill="#FEFEFE" transform="translate(0,0)"/>
<path d="" fill="#FEFEFE" transform="translate(0,0)"/>
<path d="" fill="#FEFEFE" transform="translate(0,0)"/>
<path d="" fill="#FEFEFE" transform="translate(0,0)"/>
<path d="" fill="#FEFEFE" transform="translate(0,0)"/>
<path d="" fill="#FDFDFD" transform="translate(0,0)"/>
<path d="" fill="#FEFEFE" transform="translate(0,0)"/>
<path d="" fill="#FDFDFD" transform="translate(0,0)"/>
<path d="" fill="#FCFCFD" transform="translate(0,0)"/>
<path d="" fill="#FEFEFE" transform="translate(0,0)"/>
<path d="" fill="#FEFEFE" transform="translate(0,0)"/>
<path d="" fill="#FEFEFE" transform="translate(0,0)"/>
<path d="" fill="#FEFEFE" transform="translate(0,0)"/>
<path d="" fill="#FEFEFE" transform="translate(0,0)"/>
<path d="" fill="#FEFEFE" transform="translate(0,0)"/>
<path d="" fill="#FEFEFE" transform="translate(0,0)"/>
<path d="" fill="#FEFEFE" transform="translate(0,0)"/>
<path d="" fill="#FEFEFE" transform="translate(0,0)"/>
<path d="" fill="#FEFEFE" transform="translate(0,0)"/>
<path d="" fill="#FEFEFE" transform="translate(0,0)"/>
<path d="" fill="#FEFEFE" transform="translate(0,0)"/>
<path d="" fill="#FCFCFD" transform="translate(0,0)"/>
<path d="" fill="#FEFEFE" transform="translate(0,0)"/>
<path d="" fill="#FEFEFE" transform="translate(0,0)"/>
<path d="" fill="#FEFEFE" transform="translate(0,0)"/>
<path d="" fill="#FEFEFE" transform="translate(0,0)"/>
<path d="" fill="#FEFEFE" transform="translate(0,0)"/>
<path d="" fill="#FEFEFE" transform="translate(0,0)"/>
<path d="" fill="#FDFDFD" transform="translate(0,0)"/>
<path d="" fill="#FEFEFE" transform="translate(0,0)"/>
<path d="" fill="#FEFEFE" transform="translate(0,0)"/>
<path d="" fill="#FEFEFE" transform="translate(0,0)"/>
<path d="" fill="#FEFEFE" transform="translate(0,0)"/>
<path d="" fill="#FEFEFE" transform="translate(0,0)"/>
<path d="" fill="#FEFEFE" transform="translate(0,0)"/>
<path d="" fill="#FEFEFE" transform="translate(0,0)"/>
<path d="" fill="#FEFEFE" transform="translate(0,0)"/>
<path d="" fill="#FEFEFE" transform="translate(0,0)"/>
<path d="" fill="#FEFEFE" transform="translate(0,0)"/>
<path d="" fill="#FEFEFE" transform="translate(0,0)"/>
<path d="" fill="#FEFEFE" transform="translate(0,0)"/>
<path d="" fill="#FEFEFE" transform="translate(0,0)"/>
<path d="" fill="#FEFEFE" transform="translate(0,0)"/>
<path d="" fill="#FEFEFE" transform="translate(0,0)"/>
<path d="" fill="#FDFDFD" transform="translate(0,0)"/>
<path d="" fill="#FDFDFD" transform="translate(0,0)"/>
<path d="" fill="#FEFEFE" transform="translate(0,0)"/>
<path d="" fill="#FEFEFE" transform="translate(0,0)"/>
<path d="" fill="#FEFEFE" transform="translate(0,0)"/>
<path d="" fill="#FEFEFE" transform="translate(0,0)"/>
<path d="" fill="#FEFEFE" transform="translate(0,0)"/>
<path d="" fill="#FEFEFE" transform="translate(0,0)"/>
<path d="" fill="#FEFEFE" transform="translate(0,0)"/>
<path d="" fill="#FEFEFE" transform="translate(0,0)"/>
<path d="" fill="#FEFEFE" transform="translate(0,0)"/>
<path d="" fill="#FEFEFE" transform="translate(0,0)"/>
<path d="" fill="#FEFEFE" transform="translate(0,0)"/>
<path d="" fill="#FEFEFE" transform="translate(0,0)"/>
<path d="" fill="#FEFEFE" transform="translate(0,0)"/>
<path d="" fill="#FEFEFE" transform="translate(0,0)"/>
<path d="" fill="#FEFEFE" transform="translate(0,0)"/>
<path d="" fill="#FDFDFD" transform="translate(0,0)"/>
<path d="" fill="#FEFEFE" transform="translate(0,0)"/>
<path d="" fill="#FDFDFD" transform="translate(0,0)"/>
<path d="" fill="#FEFEFE" transform="translate(0,0)"/>
<path d="" fill="#FEFEFE" transform="translate(0,0)"/>
<path d="" fill="#FEFEFE" transform="translate(0,0)"/>
<path d="" fill="#FDFDFD" transform="translate(0,0)"/>
<path d="" fill="#FDFDFD" transform="translate(0,0)"/>
<path d="" fill="#FEFEFE" transform="translate(0,0)"/>
<path d="" fill="#FEFEFE" transform="translate(0,0)"/>
<path d="" fill="#FEFEFE" transform="translate(0,0)"/>
<path d="" fill="#FEFEFE" transform="translate(0,0)"/>
<path d="" fill="#FEFEFE" transform="translate(0,0)"/>
<path d="" fill="#FEFEFE" transform="translate(0,0)"/>
<path d="" fill="#FEFEFE" transform="translate(0,0)"/>
<path d="" fill="#FEFEFE" transform="translate(0,0)"/>
<path d="" fill="#FEFEFE" transform="translate(0,0)"/>
<path d="" fill="#FEFEFE" transform="translate(0,0)"/>
<path d="" fill="#FEFEFE" transform="translate(0,0)"/>
<path d="" fill="#FEFEFE" transform="translate(0,0)"/>
<path d="" fill="#FEFEFE" transform="translate(0,0)"/>
<path d="" fill="#FEFEFE" transform="translate(0,0)"/>
<path d="" fill="#FEFEFE" transform="translate(0,0)"/>
<path d="" fill="#FEFEFE" transform="translate(0,0)"/>
<path d="" fill="#FEFEFE" transform="translate(0,0)"/>
<path d="" fill="#FEFEFE" transform="translate(0,0)"/>
<path d="" fill="#FEFEFE" transform="translate(0,0)"/>
<path d="" fill="#FEFEFE" transform="translate(0,0)"/>
<path d="" fill="#FEFEFE" transform="translate(0,0)"/>
<path d="" fill="#FEFEFE" transform="translate(0,0)"/>
<path d="" fill="#FDFDFD" transform="translate(0,0)"/>
<path d="" fill="#FEFEFE" transform="translate(0,0)"/>
<path d="" fill="#FEFEFE" transform="translate(0,0)"/>
<path d="" fill="#FEFEFE" transform="translate(0,0)"/>
<path d="" fill="#FEFEFE" transform="translate(0,0)"/>
<path d="" fill="#FEFEFE" transform="translate(0,0)"/>
<path d="" fill="#FEFEFE" transform="translate(0,0)"/>
<path d="" fill="#FEFEFE" transform="translate(0,0)"/>
<path d="" fill="#FEFEFE" transform="translate(0,0)"/>
<path d="" fill="#FEFEFE" transform="translate(0,0)"/>
<path d="" fill="#FEFEFE" transform="translate(0,0)"/>
<path d="" fill="#FEFEFE" transform="translate(0,0)"/>
<path d="" fill="#FEFEFE" transform="translate(0,0)"/>
<path d="" fill="#FEFEFE" transform="translate(0,0)"/>
<path d="" fill="#FEFEFE" transform="translate(0,0)"/>
<path d="" fill="#FEFEFE" transform="translate(0,0)"/>
<path d="" fill="#FEFEFE" transform="translate(0,0)"/>
<path d="" fill="#FDFDFD" transform="translate(0,0)"/>
<path d="" fill="#FDFDFD" transform="translate(0,0)"/>
<path d="" fill="#FEFEFE" transform="translate(0,0)"/>
<path d="" fill="#FDFDFD" transform="translate(0,0)"/>
<path d="" fill="#FEFEFE" transform="translate(0,0)"/>
<path d="" fill="#FEFEFE" transform="translate(0,0)"/>
<path d="" fill="#FEFEFE" transform="translate(0,0)"/>
<path d="" fill="#FEFEFE" transform="translate(0,0)"/>
<path d="" fill="#FEFEFE" transform="translate(0,0)"/>
<path d="" fill="#FEFEFE" transform="translate(0,0)"/>
<path d="" fill="#FEFEFE" transform="translate(0,0)"/>
<path d="" fill="#FEFEFE" transform="translate(0,0)"/>
<path d="" fill="#FEFEFE" transform="translate(0,0)"/>
<path d="" fill="#FEFEFE" transform="translate(0,0)"/>
<path d="" fill="#FEFEFE" transform="translate(0,0)"/>
<path d="" fill="#FEFEFE" transform="translate(0,0)"/>
<path d="" fill="#FEFEFE" transform="translate(0,0)"/>
<path d="" fill="#FEFEFE" transform="translate(0,0)"/>
<path d="" fill="#FEFEFE" transform="translate(0,0)"/>
<path d="" fill="#FEFEFE" transform="translate(0,0)"/>
<path d="" fill="#FDFDFD" transform="translate(0,0)"/>
<path d="" fill="#FEFEFE" transform="translate(0,0)"/>
<path d="" fill="#FEFEFE" transform="translate(0,0)"/>
<path d="" fill="#FEFEFE" transform="translate(0,0)"/>
<path d="" fill="#FEFEFE" transform="translate(0,0)"/>
<path d="" fill="#FEFEFE" transform="translate(0,0)"/>
<path d="" fill="#FEFEFE" transform="translate(0,0)"/>
<path d="" fill="#FEFEFE" transform="translate(0,0)"/>
<path d="" fill="#FEFEFE" transform="translate(0,0)"/>
<path d="" fill="#FEFEFE" transform="translate(0,0)"/>
<path d="" fill="#FEFEFE" transform="translate(0,0)"/>
<path d="" fill="#FEFEFE" transform="translate(0,0)"/>
<path d="" fill="#FEFEFE" transform="translate(0,0)"/>
<path d="" fill="#FEFEFE" transform="translate(0,0)"/>
<path d="" fill="#FEFEFE" transform="translate(0,0)"/>
<path d="" fill="#FEFEFE" transform="translate(0,0)"/>
<path d="" fill="#FEFEFE" transform="translate(0,0)"/>
<path d="" fill="#FEFEFE" transform="translate(0,0)"/>
<path d="" fill="#FEFEFE" transform="translate(0,0)"/>
<path d="" fill="#FEFEFE" transform="translate(0,0)"/>
<path d="" fill="#FEFEFE" transform="translate(0,0)"/>
<path d="" fill="#FEFEFE" transform="translate(0,0)"/>
<path d="" fill="#FDFDFD" transform="translate(0,0)"/>
<path d="" fill="#FEFEFE" transform="translate(0,0)"/>
<path d="" fill="#FEFEFE" transform="translate(0,0)"/>
<path d="" fill="#FEFEFE" transform="translate(0,0)"/>
<path d="" fill="#FEFEFE" transform="translate(0,0)"/>
<path d="" fill="#FEFEFE" transform="translate(0,0)"/>
<path d="" fill="#FEFEFE" transform="translate(0,0)"/>
<path d="" fill="#FEFEFE" transform="translate(0,0)"/>
<path d="" fill="#FDFDFD" transform="translate(0,0)"/>
<path d="" fill="#FEFEFE" transform="translate(0,0)"/>
<path d="" fill="#FEFEFE" transform="translate(0,0)"/>
<path d="" fill="#FEFEFE" transform="translate(0,0)"/>
<path d="" fill="#FEFEFE" transform="translate(0,0)"/>
<path d="" fill="#FEFEFE" transform="translate(0,0)"/>
<path d="" fill="#FEFEFE" transform="translate(0,0)"/>
<path d="" fill="#FEFEFE" transform="translate(0,0)"/>
<path d="" fill="#FEFEFE" transform="translate(0,0)"/>
<path d="" fill="#FEFEFE" transform="translate(0,0)"/>
<path d="" fill="#FEFEFE" transform="translate(0,0)"/>
<path d="" fill="#FEFEFE" transform="translate(0,0)"/>
<path d="" fill="#FEFEFE" transform="translate(0,0)"/>
<path d="" fill="#FEFEFE" transform="translate(0,0)"/>
<path d="" fill="#FEFEFE" transform="translate(0,0)"/>
<path d="" fill="#FEFEFE" transform="translate(0,0)"/>
<path d="" fill="#FEFEFE" transform="translate(0,0)"/>
<path d="" fill="#FEFEFE" transform="translate(0,0)"/>
<path d="" fill="#FEFEFE" transform="translate(0,0)"/>
<path d="" fill="#FEFEFE" transform="translate(0,0)"/>
<path d="" fill="#FEFEFE" transform="translate(0,0)"/>
<path d="" fill="#FEFEFE" transform="translate(0,0)"/>
<path d="" fill="#FEFEFE" transform="translate(0,0)"/>
<path d="" fill="#FEFEFE" transform="translate(0,0)"/>
<path d="" fill="#FEFEFE" transform="translate(0,0)"/>
<path d="" fill="#FEFEFE" transform="translate(0,0)"/>
<path d="" fill="#FEFEFE" transform="translate(0,0)"/>
<path d="" fill="#FEFEFE" transform="translate(0,0)"/>
<path d="" fill="#FEFEFE" transform="translate(0,0)"/>
<path d="" fill="#FEFEFE" transform="translate(0,0)"/>
<path d="" fill="#FEFEFE" transform="translate(0,0)"/>
<path d="" fill="#FEFEFE" transform="translate(0,0)"/>
<path d="" fill="#FEFEFE" transform="translate(0,0)"/>
<path d="" fill="#FEFEFE" transform="translate(0,0)"/>
<path d="" fill="#FEFEFE" transform="translate(0,0)"/>
<path d="" fill="#FEFEFE" transform="translate(0,0)"/>
<path d="" fill="#FEFEFE" transform="translate(0,0)"/>
<path d="" fill="#FEFEFE" transform="translate(0,0)"/>
<path d="" fill="#FEFEFE" transform="translate(0,0)"/>
<path d="" fill="#FEFEFE" transform="translate(0,0)"/>
<path d="" fill="#FEFEFE" transform="translate(0,0)"/>
<path d="" fill="#FEFEFE" transform="translate(0,0)"/>
<path d="" fill="#FEFEFE" transform="translate(0,0)"/>
<path d="" fill="#FEFEFE" transform="translate(0,0)"/>
<path d="" fill="#FEFEFE" transform="translate(0,0)"/>
<path d="" fill="#FDFDFD" transform="translate(0,0)"/>
<path d="" fill="#FEFEFE" transform="translate(0,0)"/>
<path d="" fill="#FEFEFE" transform="translate(0,0)"/>
<path d="" fill="#FEFEFE" transform="translate(0,0)"/>
<path d="" fill="#FEFEFE" transform="translate(0,0)"/>
<path d="" fill="#FEFEFE" transform="translate(0,0)"/>
<path d="" fill="#FEFEFE" transform="translate(0,0)"/>
<path d="" fill="#FEFEFE" transform="translate(0,0)"/>
<path d="" fill="#FEFEFE" transform="translate(0,0)"/>
<path d="" fill="#FEFEFE" transform="translate(0,0)"/>
<path d="" fill="#FEFEFE" transform="translate(0,0)"/>
<path d="" fill="#FEFEFE" transform="translate(0,0)"/>
<path d="" fill="#FEFEFE" transform="translate(0,0)"/>
<path d="" fill="#FEFEFE" transform="translate(0,0)"/>
<path d="" fill="#FEFEFE" transform="translate(0,0)"/>
<path d="" fill="#FEFEFE" transform="translate(0,0)"/>
<path d="" fill="#FEFEFE" transform="translate(0,0)"/>
<path d="" fill="#FDFDFD" transform="translate(0,0)"/>
<path d="" fill="#FEFEFE" transform="translate(0,0)"/>
<path d="" fill="#FEFEFE" transform="translate(0,0)"/>
<path d="" fill="#FEFEFE" transform="translate(0,0)"/>
<path d="" fill="#FEFEFE" transform="translate(0,0)"/>
<path d="" fill="#FEFEFE" transform="translate(0,0)"/>
<path d="" fill="#FEFEFE" transform="translate(0,0)"/>
<path d="" fill="#FDFDFD" transform="translate(0,0)"/>
<path d="" fill="#FEFEFE" transform="translate(0,0)"/>
<path d="" fill="#FEFEFE" transform="translate(0,0)"/>
<path d="" fill="#FEFEFE" transform="translate(0,0)"/>
<path d="" fill="#FDFDFD" transform="translate(0,0)"/>
<path d="" fill="#FEFEFE" transform="translate(0,0)"/>
<path d="" fill="#FEFEFE" transform="translate(0,0)"/>
<path d="" fill="#FEFEFE" transform="translate(0,0)"/>
<path d="" fill="#FEFEFE" transform="translate(0,0)"/>
<path d="" fill="#FEFEFE" transform="translate(0,0)"/>
<path d="" fill="#FEFEFE" transform="translate(0,0)"/>
<path d="" fill="#FEFEFE" transform="translate(0,0)"/>
<path d="" fill="#FEFEFE" transform="translate(0,0)"/>
<path d="" fill="#FEFEFE" transform="translate(0,0)"/>
<path d="" fill="#FEFEFE" transform="translate(0,0)"/>
<path d="" fill="#FEFEFE" transform="translate(0,0)"/>
<path d="" fill="#FEFEFE" transform="translate(0,0)"/>
<path d="" fill="#FEFEFE" transform="translate(0,0)"/>
<path d="" fill="#FEFEFE" transform="translate(0,0)"/>
<path d="" fill="#FEFEFE" transform="translate(0,0)"/>
<path d="" fill="#FEFEFE" transform="translate(0,0)"/>
<path d="" fill="#FEFEFE" transform="translate(0,0)"/>
<path d="" fill="#FEFEFE" transform="translate(0,0)"/>
<path d="" fill="#FEFEFE" transform="translate(0,0)"/>
<path d="" fill="#FDFDFD" transform="translate(0,0)"/>
<path d="" fill="#FEFEFE" transform="translate(0,0)"/>
<path d="" fill="#FEFEFE" transform="translate(0,0)"/>
<path d="" fill="#FEFEFE" transform="translate(0,0)"/>
<path d="" fill="#FEFEFE" transform="translate(0,0)"/>
<path d="" fill="#FEFEFE" transform="translate(0,0)"/>
<path d="" fill="#FEFEFE" transform="translate(0,0)"/>
<path d="" fill="#FEFEFE" transform="translate(0,0)"/>
<path d="" fill="#FEFEFE" transform="translate(0,0)"/>
<path d="" fill="#FEFEFE" transform="translate(0,0)"/>
<path d="" fill="#FEFEFE" transform="translate(0,0)"/>
<path d="" fill="#FEFEFE" transform="translate(0,0)"/>
<path d="" fill="#FEFEFE" transform="translate(0,0)"/>
<path d="" fill="#FEFEFE" transform="translate(0,0)"/>
<path d="" fill="#FEFEFE" transform="translate(0,0)"/>
<path d="" fill="#FEFEFE" transform="translate(0,0)"/>
<path d="" fill="#FEFEFE" transform="translate(0,0)"/>
<path d="" fill="#FEFEFE" transform="translate(0,0)"/>
<path d="" fill="#FDFDFD" transform="translate(0,0)"/>
<path d="" fill="#FEFEFE" transform="translate(0,0)"/>
<path d="" fill="#FEFEFE" transform="translate(0,0)"/>
<path d="" fill="#FEFEFE" transform="translate(0,0)"/>
<path d="" fill="#FEFEFE" transform="translate(0,0)"/>
<path d="" fill="#FEFEFE" transform="translate(0,0)"/>
<path d="" fill="#FEFEFE" transform="translate(0,0)"/>
<path d="" fill="#FEFEFE" transform="translate(0,0)"/>
<path d="" fill="#FEFEFE" transform="translate(0,0)"/>
<path d="" fill="#FEFEFE" transform="translate(0,0)"/>
<path d="" fill="#FEFEFE" transform="translate(0,0)"/>
<path d="" fill="#FEFEFE" transform="translate(0,0)"/>
<path d="" fill="#FEFEFE" transform="translate(0,0)"/>
<path d="" fill="#FEFEFE" transform="translate(0,0)"/>
<path d="" fill="#FEFEFE" transform="translate(0,0)"/>
<path d="" fill="#FEFEFE" transform="translate(0,0)"/>
<path d="" fill="#FEFEFE" transform="translate(0,0)"/>
<path d="" fill="#FEFEFE" transform="translate(0,0)"/>
<path d="" fill="#FEFEFE" transform="translate(0,0)"/>
<path d="" fill="#FEFEFE" transform="translate(0,0)"/>
<path d="" fill="#FEFEFE" transform="translate(0,0)"/>
<path d="" fill="#FEFEFE" transform="translate(0,0)"/>
<path d="" fill="#FEFEFE" transform="translate(0,0)"/>
<path d="" fill="#FEFEFE" transform="translate(0,0)"/>
<path d="" fill="#FEFEFE" transform="translate(0,0)"/>
<path d="" fill="#FEFEFE" transform="translate(0,0)"/>
<path d="" fill="#FEFEFE" transform="translate(0,0)"/>
<path d="" fill="#FEFEFE" transform="translate(0,0)"/>
<path d="" fill="#FEFEFE" transform="translate(0,0)"/>
<path d="" fill="#FDFDFD" transform="translate(0,0)"/>
<path d="" fill="#FEFEFE" transform="translate(0,0)"/>
<path d="" fill="#FEFEFE" transform="translate(0,0)"/>
<path d="" fill="#FEFEFE" transform="translate(0,0)"/>
<path d="" fill="#FEFEFE" transform="translate(0,0)"/>
<path d="" fill="#FEFEFE" transform="translate(0,0)"/>
<path d="" fill="#FEFEFE" transform="translate(0,0)"/>
<path d="" fill="#FEFEFE" transform="translate(0,0)"/>
<path d="" fill="#FEFEFE" transform="translate(0,0)"/>
<path d="" fill="#FEFEFE" transform="translate(0,0)"/>
<path d="" fill="#FEFEFE" transform="translate(0,0)"/>
<path d="" fill="#FEFEFE" transform="translate(0,0)"/>
<path d="" fill="#FEFEFE" transform="translate(0,0)"/>
<path d="" fill="#FEFEFE" transform="translate(0,0)"/>
<path d="" fill="#FEFEFE" transform="translate(0,0)"/>
<path d="" fill="#FEFEFE" transform="translate(0,0)"/>
<path d="" fill="#FEFEFE" transform="translate(0,0)"/>
<path d="" fill="#FEFEFE" transform="translate(0,0)"/>
<path d="" fill="#FEFEFE" transform="translate(0,0)"/>
<path d="" fill="#FEFEFE" transform="translate(0,0)"/>
<path d="" fill="#FEFEFE" transform="translate(0,0)"/>
<path d="" fill="#FEFEFE" transform="translate(0,0)"/>
<path d="" fill="#FEFEFE" transform="translate(0,0)"/>
<path d="" fill="#FEFEFE" transform="translate(0,0)"/>
<path d="" fill="#FEFEFE" transform="translate(0,0)"/>
<path d="" fill="#FEFEFE" transform="translate(0,0)"/>
<path d="" fill="#FEFEFE" transform="translate(0,0)"/>
<path d="" fill="#FEFEFE" transform="translate(0,0)"/>
<path d="" fill="#FEFEFE" transform="translate(0,0)"/>
<path d="" fill="#FEFEFE" transform="translate(0,0)"/>
<path d="" fill="#FEFEFE" transform="translate(0,0)"/>
<path d="" fill="#FEFEFE" transform="translate(0,0)"/>
<path d="" fill="#FEFEFE" transform="translate(0,0)"/>
<path d="" fill="#FDFDFD" transform="translate(0,0)"/>
<path d="" fill="#FEFEFE" transform="translate(0,0)"/>
<path d="" fill="#FEFEFE" transform="translate(0,0)"/>
<path d="" fill="#FEFEFE" transform="translate(0,0)"/>
<path d="" fill="#FEFEFE" transform="translate(0,0)"/>
<path d="" fill="#FEFEFE" transform="translate(0,0)"/>
<path d="" fill="#FEFEFE" transform="translate(0,0)"/>
<path d="" fill="#FEFEFE" transform="translate(0,0)"/>
<path d="" fill="#FEFEFE" transform="translate(0,0)"/>
<path d="" fill="#FEFEFE" transform="translate(0,0)"/>
<path d="" fill="#FEFEFE" transform="translate(0,0)"/>
<path d="" fill="#FEFEFE" transform="translate(0,0)"/>
<path d="" fill="#FEFEFE" transform="translate(0,0)"/>
<path d="" fill="#FDFDFD" transform="translate(0,0)"/>
<path d="" fill="#FEFEFE" transform="translate(0,0)"/>
<path d="" fill="#FEFEFE" transform="translate(0,0)"/>
<path d="" fill="#FEFEFE" transform="translate(0,0)"/>
<path d="" fill="#FEFEFE" transform="translate(0,0)"/>
</svg>
