<?xml version="1.0" encoding="UTF-8"?>
<svg version="1.1" xmlns="http://www.w3.org/2000/svg" width="123" height="110">
<path d="M0 0 C40.59 0 81.18 0 123 0 C123 36.3 123 72.6 123 110 C82.41 110 41.82 110 0 110 C0 73.7 0 37.4 0 0 Z " fill="#F9FCFC" transform="translate(0,0)"/>
<path d="M0 0 C40.59 0 81.18 0 123 0 C123 36.3 123 72.6 123 110 C82.41 110 41.82 110 0 110 C0 73.7 0 37.4 0 0 Z M8 12 C8 12.66 8 13.32 8 14 C7.01 14.33 6.02 14.66 5 15 C3.85331029 18.44006914 3.85189161 21.13356765 3.82299805 24.76293945 C3.81642685 25.44624329 3.80985565 26.12954712 3.80308533 26.83355713 C3.78338506 29.09346634 3.77169718 31.3533092 3.76171875 33.61328125 C3.75764322 34.38635305 3.7535677 35.15942486 3.74936867 35.95592308 C3.72852199 40.04767971 3.71421417 44.13940295 3.70483398 48.23120117 C3.69377163 52.45133771 3.65937024 56.67094668 3.61966228 60.8908968 C3.59348368 64.14148419 3.58514109 67.39194609 3.58155251 70.64262962 C3.57668983 72.19792431 3.56508481 73.75321351 3.54651451 75.30840492 C3.52209471 77.48898456 3.52309229 79.66820167 3.5300293 81.84887695 C3.52416306 83.08781204 3.51829681 84.32674713 3.51225281 85.60322571 C4.09240948 89.64355913 5.59192572 91.75403449 8 95 C8.33 95.99 8.66 96.98 9 98 C11.69663604 99.74164008 13.84839613 100.25398826 17.02702332 100.28761292 C17.81886017 100.30047836 18.61069702 100.31334381 19.42652893 100.32659912 C20.28632858 100.33040588 21.14612823 100.33421265 22.03198242 100.33813477 C22.9446991 100.34967087 23.85741577 100.36120697 24.79779053 100.37309265 C27.81703406 100.4073981 30.8360731 100.42590282 33.85546875 100.44140625 C34.88866053 100.44830915 35.9218523 100.45521206 36.98635292 100.46232414 C42.45615416 100.49816029 47.92585225 100.52169802 53.39575195 100.53540039 C59.0339547 100.55193382 64.67090004 100.61033781 70.30868053 100.67854404 C74.65400546 100.72341573 78.99903153 100.73690141 83.34456825 100.74201775 C85.42215032 100.74989406 87.49972355 100.76948655 89.57707787 100.80124092 C103.75498544 101.45407824 103.75498544 101.45407824 115.69013977 94.79771423 C118.37589642 91.11165457 118.13170926 87.62897003 118.14526367 83.22119141 C118.14862228 82.53628128 118.1519809 81.85137115 118.15544128 81.14570618 C118.16494187 78.88097318 118.16689399 76.61631419 118.16796875 74.3515625 C118.17118213 72.77599049 118.17454627 71.20041879 118.17805481 69.62484741 C118.18404397 66.3211803 118.18589495 63.01753934 118.18530273 59.71386719 C118.18520117 55.48483276 118.19884885 51.25596642 118.21607494 47.02697182 C118.22720525 43.77213779 118.22922162 40.51734425 118.22869301 37.26249313 C118.22987174 35.70361121 118.23428754 34.14472819 118.24202538 32.58586502 C118.25184543 30.40299027 118.24893935 28.22047851 118.24291992 26.03759766 C118.24434494 24.79644196 118.24576996 23.55528625 118.24723816 22.27651978 C117.94169208 18.22727517 117.09645145 15.32487883 114.5 12.1875 C113.05751031 10.79309902 113.05751031 10.79309902 111 11 C111 10.34 111 9.68 111 9 C107.04370051 7.6812335 103.2512653 7.83591574 99.12573242 7.82299805 C98.21809647 7.81642685 97.31046051 7.80985565 96.37532043 7.80308533 C93.36870238 7.78335857 90.36213423 7.77169163 87.35546875 7.76171875 C86.32864801 7.75764322 85.30182728 7.7535677 84.24389076 7.74936867 C78.80997544 7.72851146 73.37608536 7.71420772 67.94213867 7.70483398 C62.32977579 7.69376504 56.71780888 7.65935833 51.10558605 7.61966228 C46.7895687 7.59351988 42.4736461 7.58514429 38.15755653 7.58155251 C36.08871089 7.5766811 34.01986963 7.56505142 31.9511013 7.54651451 C29.05456494 7.52217199 26.15905847 7.52307916 23.26245117 7.5300293 C22.40976654 7.51721924 21.55708191 7.50440918 20.67855835 7.49121094 C15.21336133 7.53895537 12.17521402 8.38606333 8 12 Z " fill="#F6FBFD" transform="translate(0,0)"/>
<path d="M0 0 C0.91274689 -0.00204437 1.82549377 -0.00408875 2.76589966 -0.00619507 C5.77626726 -0.00919785 8.78608442 0.00925752 11.79638672 0.02832031 C13.88955551 0.03137862 15.98272633 0.03325419 18.07589722 0.03399658 C22.45888071 0.03859632 26.84168013 0.05301125 31.22460938 0.07519531 C36.84826854 0.10351223 42.47178298 0.11441077 48.09550667 0.11887741 C52.41569471 0.12302974 56.73585339 0.13284512 61.05602646 0.1447525 C63.13011312 0.15045662 65.2042026 0.15521486 67.27829361 0.15901947 C70.17255894 0.16587858 73.06670893 0.1795086 75.9609375 0.1953125 C76.82126587 0.19643036 77.68159424 0.19754822 78.56799316 0.19869995 C81.91013525 0.22292364 84.65862823 0.29229665 87.85107422 1.35644531 C87.85107422 2.01644531 87.85107422 2.67644531 87.85107422 3.35644531 C88.46982422 3.64519531 89.08857422 3.93394531 89.72607422 4.23144531 C92.08973996 5.48279777 93.53337842 6.48497816 94.46798706 9.0486908 C94.98247802 12.14803468 94.97845801 15.13808212 94.98046875 18.28051758 C94.98309723 19.31292068 94.98309723 19.31292068 94.98577881 20.36618042 C94.99017045 22.63509665 94.98726913 24.90393458 94.98388672 27.17285156 C94.98456045 28.75178543 94.98553106 30.3307192 94.98678589 31.90965271 C94.98825915 35.21573882 94.98611993 38.52179789 94.98144531 41.82788086 C94.97574357 46.06712524 94.97903219 50.30630637 94.98501778 54.54554844 C94.98862941 57.80458555 94.9874821 61.06360763 94.98488998 64.32264519 C94.98422263 65.88596542 94.98504247 67.44928702 94.98736954 69.01260567 C94.98990642 71.19569648 94.98604103 73.37868444 94.98046875 75.56176758 C94.97967316 76.8043483 94.97887756 78.04692902 94.97805786 79.3271637 C94.79351219 83.72962685 93.75165077 85.98496752 90.63354492 88.99682617 C82.84994639 94.80365596 72.56762762 93.25153407 63.33154297 93.11035156 C61.22407384 93.10236194 59.11659231 93.09719261 57.0091095 93.0947113 C52.60679131 93.08250555 48.20547714 93.04764057 43.8034668 92.99438477 C38.15975689 92.92632064 32.51675369 92.89753199 26.8726759 92.88339329 C21.48387125 92.86827566 16.0952418 92.83385424 10.70654297 92.79785156 C9.67891531 92.79257509 8.65128765 92.78729862 7.59251976 92.78186226 C4.68913986 92.76342348 1.7862562 92.7312745 -1.11694336 92.69458008 C-1.97674301 92.69077332 -2.83654266 92.68696655 -3.72239685 92.68304443 C-4.5142337 92.67017899 -5.30607056 92.65731354 -6.12190247 92.64405823 C-6.80708859 92.63681008 -7.49227472 92.62956194 -8.19822407 92.62209415 C-10.53417729 92.30398131 -12.13622291 91.57099185 -14.14892578 90.35644531 C-15.37939453 88.44628906 -15.37939453 88.44628906 -16.33642578 86.29394531 C-17.44551449 83.62148742 -17.44551449 83.62148742 -19.14892578 81.35644531 C-19.25379658 79.16921357 -19.28749605 76.97855254 -19.29418945 74.78881836 C-19.29754807 74.10259399 -19.30090668 73.41636963 -19.30436707 72.70935059 C-19.31390608 70.42893691 -19.31582186 68.14859648 -19.31689453 65.86816406 C-19.32010585 64.28733794 -19.32346982 62.70651213 -19.32698059 61.12568665 C-19.33297979 57.80587068 -19.33481976 54.48608077 -19.33422852 51.16625977 C-19.33412703 46.91240752 -19.347762 42.65872269 -19.36500072 38.40491009 C-19.37612265 35.13724501 -19.37814764 31.86962032 -19.37761879 28.60193825 C-19.37879928 27.03385658 -19.38322492 25.46577388 -19.39095116 23.8977108 C-19.4007519 21.70244039 -19.39787247 19.50753214 -19.3918457 17.31225586 C-19.39327072 16.06284714 -19.39469574 14.81343842 -19.39616394 13.52616882 C-19.16288584 10.53542062 -18.72669166 8.86413502 -17.14892578 6.35644531 C-16.48892578 6.35644531 -15.82892578 6.35644531 -15.14892578 6.35644531 C-14.81892578 5.36644531 -14.48892578 4.37644531 -14.14892578 3.35644531 C-9.74559795 -0.32695654 -5.45407139 -0.05869352 0 0 Z M-11.14892578 11.35644531 C-11.89258767 14.59270593 -11.89258767 14.59270593 -11.76416016 18.28051758 C-11.76970917 18.96878632 -11.77525818 19.65705505 -11.78097534 20.36618042 C-11.79276369 22.63578438 -11.76851131 24.90338805 -11.74267578 27.17285156 C-11.74096455 28.75178435 -11.74103049 30.33071998 -11.74279785 31.90965271 C-11.74114517 35.21600587 -11.7224559 38.52168052 -11.69091797 41.82788086 C-11.65120732 46.06734889 -11.64687658 50.30592968 -11.6543808 54.54554844 C-11.6574489 57.80466349 -11.64533636 61.06357877 -11.62825012 64.32264519 C-11.62121629 65.8859526 -11.61809605 67.44928266 -11.61894226 69.01260567 C-11.61714605 71.19607679 -11.59578283 73.37848081 -11.56884766 75.56176758 C-11.56042847 76.8043483 -11.55200928 78.04692902 -11.54333496 79.3271637 C-11.10521028 82.69220463 -10.74218548 83.33583239 -8.14892578 85.35644531 C-5.20148624 85.64758401 -2.46618782 85.75578246 0.48168945 85.72875977 C1.36327728 85.73241043 2.24486511 85.7360611 3.15316772 85.73982239 C6.0721961 85.74793921 8.99067129 85.73430726 11.90966797 85.71972656 C13.93604024 85.71920805 15.96241302 85.71972542 17.98878479 85.72123718 C22.23828631 85.72114741 26.48759833 85.71070755 30.73706055 85.69262695 C36.1858565 85.66995414 41.6343751 85.66939252 47.08320522 85.6761446 C51.26876798 85.67948554 55.45426744 85.67285187 59.63981819 85.66301537 C61.64888236 85.65916416 63.65795357 85.65801482 65.6670208 85.65960121 C68.47517183 85.65997187 71.28296687 85.64735093 74.09106445 85.63110352 C74.92288742 85.63358093 75.75471039 85.63605835 76.61174011 85.63861084 C82.08148857 85.67943347 82.08148857 85.67943347 86.85107422 83.35644531 C87.992372 79.93255196 88.0061149 77.24950684 88.04394531 73.63769531 C88.0521228 72.95932617 88.06030029 72.28095703 88.06872559 71.58203125 C88.09351336 69.34017819 88.11007396 67.09838793 88.12451172 64.85644531 C88.13249723 63.70776978 88.13249723 63.70776978 88.14064407 62.53588867 C88.1673404 58.48650108 88.18673086 54.43714401 88.20117188 50.38769531 C88.21454008 47.03325302 88.2424491 43.67941491 88.28320312 40.32519531 C88.33240325 36.27570953 88.3572762 32.22677389 88.36439896 28.17700195 C88.37112688 26.63315828 88.38638902 25.08932762 88.41028976 23.5456543 C88.44180191 21.38817726 88.44200163 19.23284064 88.43457031 17.07519531 C88.44265717 15.84736328 88.45074402 14.61953125 88.45907593 13.35449219 C88.1296481 10.2580692 88.1296481 10.2580692 85.85574341 8.46177673 C81.94046286 7.02145757 78.30881078 6.9294153 74.19287109 6.95239258 C72.90172142 6.9420977 72.90172142 6.9420977 71.58448792 6.93159485 C68.74609776 6.91332965 65.9082604 6.91716353 63.06982422 6.92285156 C61.09354472 6.91829001 59.11726681 6.91298451 57.14099121 6.90696716 C53.00180613 6.8980369 48.862814 6.90045871 44.72363281 6.91040039 C39.42055348 6.92189675 34.11813935 6.90166781 28.8151474 6.87248325 C24.73504409 6.854135 20.65510064 6.85441086 16.57496643 6.86012077 C14.61974656 6.86027412 12.66451595 6.8542188 10.70933533 6.8418293 C7.97555816 6.82694509 5.24301596 6.8375768 2.50927734 6.85473633 C1.70289322 6.84506836 0.89650909 6.83540039 0.06568909 6.82543945 C-4.92063101 6.89095138 -7.90004846 7.45027694 -11.14892578 11.35644531 Z " fill="#154171" transform="translate(23.14892578125,7.6435546875)"/>
<path d="M0 0 C0.66 0 1.32 0 2 0 C3.41697193 2.83394387 3.11945929 5.20873738 3.11352539 8.37744141 C3.11367142 9.03122269 3.11381744 9.68500397 3.1139679 10.3585968 C3.11327036 12.52295227 3.1054854 14.68722204 3.09765625 16.8515625 C3.09579151 18.35086012 3.09436787 19.85015834 3.09336853 21.34945679 C3.08954779 25.29831622 3.07972128 29.24713896 3.06866455 33.19598389 C3.05844091 37.22440087 3.05386887 41.25282378 3.04882812 45.28125 C3.03809862 53.18751685 3.0210275 61.09375386 3 69 C3.66 69 4.32 69 5 69 C5.7115625 69.9590625 5.7115625 69.9590625 6.4375 70.9375 C7.9091365 73.28372963 7.9091365 73.28372963 11 74 C13.90621604 74.09159687 16.7880145 74.12596172 19.6940918 74.11352539 C20.5821048 74.11367142 21.4701178 74.11381744 22.38504028 74.1139679 C25.32312454 74.11327068 28.26114556 74.10548718 31.19921875 74.09765625 C33.23517319 74.09579139 35.27112808 74.09436781 37.30708313 74.09336853 C42.66811357 74.08954869 48.02911697 74.07972292 53.39013672 74.06866455 C58.8596968 74.05843899 64.32926124 74.05386845 69.79882812 74.04882812 C80.53256397 74.03810021 91.26627974 74.02103015 102 74 C102 74.66 102 75.32 102 76 C101.030625 76.12375 100.06125 76.2475 99.0625 76.375 C98.051875 76.58125 97.04125 76.7875 96 77 C95.67 77.66 95.34 78.32 95 79 C96.485 79.495 96.485 79.495 98 80 C86.23876572 80.09271823 74.47761852 80.16377447 62.71609306 80.20724869 C57.25460772 80.22811515 51.79337259 80.25641599 46.33203125 80.30175781 C41.06060454 80.34524856 35.78941837 80.36914419 30.51782608 80.37950897 C28.50758198 80.3868945 26.4973509 80.40131675 24.48720932 80.42292023 C21.6694071 80.4519969 18.8525963 80.45595419 16.03466797 80.45410156 C15.20532242 80.46848267 14.37597687 80.48286377 13.52149963 80.49768066 C8.23513723 80.46012214 5.13927766 79.5916795 1 76 C-1.54245936 72.60599349 -1.24764131 69.18374419 -1.24291992 65.04418945 C-1.24481827 64.35270813 -1.24671661 63.66122681 -1.24867249 62.9487915 C-1.25236829 60.67017166 -1.24169593 58.3918726 -1.23046875 56.11328125 C-1.22927648 54.52955666 -1.22882389 52.94583135 -1.2290802 51.36210632 C-1.22751757 48.04759274 -1.21924262 44.73318751 -1.20581055 41.41870117 C-1.18877937 37.16131599 -1.1849975 32.90404937 -1.18575573 28.6466341 C-1.18548446 25.37909301 -1.18001097 22.11157806 -1.17275429 18.84404564 C-1.16956384 17.27349228 -1.16759934 15.70293596 -1.16686058 14.13237953 C-1.16470333 11.94407676 -1.15597383 9.75590235 -1.14526367 7.56762695 C-1.14145187 6.32060501 -1.13764008 5.07358307 -1.13371277 3.78877258 C-1 1 -1 1 0 0 Z " fill="#094381" transform="translate(7,19)"/>
<path d="M0 0 C4.15830327 2.51634082 6.47146138 5.41438415 8 10 C8.11792999 11.64279217 8.17511674 13.29052694 8.1875 14.9375 C8.20167969 15.79214844 8.21585938 16.64679687 8.23046875 17.52734375 C7.74235875 22.76418495 4.80628576 25.56505919 1 29 C-3.11633432 30.37211144 -6.70402444 30.73565979 -11 30 C-15.73251022 27.56426935 -20.11378845 24.06919355 -22 19 C-22.54463101 14.74409767 -22.52538287 11.21667611 -20.8125 7.25 C-20.214375 6.5075 -19.61625 5.765 -19 5 C-18.401875 4.071875 -17.80375 3.14375 -17.1875 2.1875 C-11.88895395 -1.44875709 -6.19411347 -1.14495094 0 0 Z " fill="#2A5786" transform="translate(49,24)"/>
<path d="M0 0 C1.21453857 0.03963867 2.42907715 0.07927734 3.68041992 0.12011719 C4.65720955 0.15054108 4.65720955 0.15054108 5.6537323 0.18157959 C7.03332795 0.22718196 8.41276068 0.27796088 9.79199219 0.33349609 C11.89195612 0.41624614 13.99179841 0.47838225 16.0925293 0.53808594 C17.43437022 0.58502006 18.77616967 0.63315879 20.11791992 0.68261719 C21.94480347 0.74884277 21.94480347 0.74884277 23.80859375 0.81640625 C26.9505722 1.15123972 29.2547739 1.83079937 32.09838867 3.16699219 C31.76838867 4.81699219 31.43838867 6.46699219 31.09838867 8.16699219 C30.10838867 8.49699219 29.11838867 8.82699219 28.09838867 9.16699219 C28.09838867 9.82699219 28.09838867 10.48699219 28.09838867 11.16699219 C26.44838867 11.16699219 24.79838867 11.16699219 23.09838867 11.16699219 C21.48986495 13.84786506 21.0278256 15.68739485 20.59838867 18.85449219 C20.43338867 19.94761719 20.26838867 21.04074219 20.09838867 22.16699219 C16.80160979 23.81538163 13.15522823 23.30971956 9.53588867 23.29199219 C8.7424707 23.29585937 7.94905273 23.29972656 7.1315918 23.30371094 C1.22501934 23.29362285 1.22501934 23.29362285 0.09838867 22.16699219 C-0.32568231 17.50221134 0.40519342 14.98235212 3.09838867 11.16699219 C0.74400134 9.73754273 -0.38193566 9.08037958 -3.15161133 9.54199219 C-3.72911133 9.74824219 -4.30661133 9.95449219 -4.90161133 10.16699219 C-5.09692383 4.11230469 -5.09692383 4.11230469 -4.90161133 2.16699219 C-2.90161133 0.16699219 -2.90161133 0.16699219 0 0 Z " fill="#E7F3F8" transform="translate(71.901611328125,34.8330078125)"/>
<path d="M0 0 C3.79598377 2.44902179 3.79598377 2.44902179 4.62081909 4.67662048 C5.12752513 7.78139289 5.12738112 10.77744692 5.12939453 13.92407227 C5.13202301 14.95647537 5.13202301 14.95647537 5.13470459 16.00973511 C5.13909623 18.27865134 5.13619491 20.54748926 5.1328125 22.81640625 C5.13348623 24.39534012 5.13445684 25.97427388 5.13571167 27.5532074 C5.13718493 30.85929351 5.13504571 34.16535258 5.13037109 37.47143555 C5.12466935 41.71067993 5.12795797 45.94986106 5.13394356 50.18910313 C5.13755519 53.44814023 5.13640788 56.70716232 5.13381577 59.96619987 C5.13314841 61.52952011 5.13396826 63.09284171 5.13629532 64.65616035 C5.1388322 66.83925116 5.13496681 69.02223912 5.12939453 71.20532227 C5.12859894 72.44790298 5.12780334 73.6904837 5.12698364 74.97071838 C4.94243797 79.37318154 3.90057655 81.62852221 0.7824707 84.64038086 C-7.00112783 90.44721065 -17.2834466 88.89508875 -26.51953125 88.75390625 C-28.62700038 88.74591663 -30.73448191 88.7407473 -32.84196472 88.73826599 C-37.24428291 88.72606024 -41.64559708 88.69119526 -46.04760742 88.63793945 C-51.69131733 88.56987533 -57.33432053 88.54108667 -62.97839832 88.52694798 C-68.36720297 88.51183035 -73.75583242 88.47740893 -79.14453125 88.44140625 C-80.17215891 88.43612978 -81.19978657 88.43085331 -82.25855446 88.42541695 C-85.16193436 88.40697817 -88.06481802 88.37482918 -90.96801758 88.33813477 C-91.82781723 88.334328 -92.68761688 88.33052124 -93.57347107 88.32659912 C-94.36530792 88.31373367 -95.15714478 88.30086823 -95.97297668 88.28761292 C-96.65816281 88.28036477 -97.34334894 88.27311663 -98.04929829 88.26564884 C-100.34705238 87.952738 -101.98953621 87.12927507 -104 86 C-103.505 85.01 -103.505 85.01 -103 84 C-102.51597717 84.32531708 -102.03195435 84.65063416 -101.53326416 84.98580933 C-97.88769245 86.44531161 -94.33406469 86.26143708 -90.46777344 86.22705078 C-89.17942596 86.22748886 -89.17942596 86.22748886 -87.86505127 86.22793579 C-85.02972263 86.22654388 -82.19465767 86.21098914 -79.359375 86.1953125 C-77.39211165 86.19158188 -75.42484644 86.18873514 -73.45758057 86.18673706 C-68.28229636 86.17910448 -63.10712458 86.15945914 -57.93188477 86.1373291 C-52.64991782 86.11686264 -47.36793268 86.10773363 -42.0859375 86.09765625 C-31.72390896 86.07621295 -21.36196383 86.04208146 -11 86 C-10.505 84.515 -10.505 84.515 -10 83 C-8.02 83 -6.04 83 -4 83 C-4 82.34 -4 81.68 -4 81 C-4.99 81.495 -4.99 81.495 -6 82 C-8.80730125 82.0932753 -11.58961098 82.12575925 -14.39697266 82.11352539 C-15.69951241 82.11374443 -15.69951241 82.11374443 -17.02836609 82.1139679 C-19.90695672 82.11326961 -22.78548314 82.1054811 -25.6640625 82.09765625 C-27.65660568 82.09579177 -29.64914931 82.09436801 -31.64169312 82.09336853 C-36.89259094 82.08954569 -42.14346122 82.07971737 -47.39434814 82.06866455 C-52.74987414 82.05844543 -58.10540457 82.05386983 -63.4609375 82.04882812 C-73.97397045 82.03809491 -84.48698294 82.02102127 -95 82 C-95 81.67 -95 81.34 -95 81 C-93.3562867 80.9845388 -93.3562867 80.9845388 -91.67936707 80.96876526 C-81.36422785 80.87110847 -71.04915 80.76838171 -60.73411083 80.66066074 C-55.43075335 80.60544104 -50.12739034 80.55202249 -44.82397461 80.50268555 C-39.70814975 80.45502804 -34.59239254 80.40268461 -29.47664833 80.34705925 C-27.5225931 80.326642 -25.56851932 80.30792788 -23.61443138 80.29092598 C-20.88245297 80.26686811 -18.15060256 80.23681531 -15.41870117 80.20532227 C-14.60662201 80.1995668 -13.79454285 80.19381134 -12.95785522 80.18788147 C-9.72084989 80.14532472 -7.09227688 80.03075896 -4 79 C-2.87259289 75.61777868 -2.84082309 72.98361297 -2.79467773 69.41723633 C-2.78477814 68.75355545 -2.77487854 68.08987457 -2.76467896 67.40608215 C-2.7331191 65.21476801 -2.70832845 63.02343219 -2.68359375 60.83203125 C-2.66301945 59.31173645 -2.64202285 57.79144731 -2.62062073 56.27116394 C-2.56544916 52.27141913 -2.51601825 48.27162311 -2.46777344 44.27178955 C-2.4175225 40.18961026 -2.36185519 36.10750526 -2.30664062 32.02539062 C-2.19911918 24.0169899 -2.09766089 16.00852701 -2 8 C-1.67 8 -1.34 8 -1 8 C-0.505 22.355 -0.505 22.355 0 37 C0.66 37 1.32 37 2 37 C2.33 49.54 2.66 62.08 3 75 C3.02108689 67.81639981 3.04110875 60.63291458 3.05175018 53.4493103 C3.05698675 50.10258122 3.06451997 46.75589789 3.07543945 43.40917969 C3.08770232 39.55142548 3.09327316 35.69370778 3.09765625 31.8359375 C3.10281754 30.66139008 3.10797882 29.48684265 3.11329651 28.27670288 C3.88871174 13.62824062 3.88871174 13.62824062 0 0 Z " fill="#3B638D" transform="translate(113,12)"/>
<path d="M0 0 C0 0.66 0 1.32 0 2 C0.721875 2.2475 1.44375 2.495 2.1875 2.75 C5.31175343 4.13855708 7.51551912 5.65354583 10 8 C10.8125 10.25 10.8125 10.25 11 12 C11.66 12 12.32 12 13 12 C13.22151549 13.79008467 13.42682213 15.58218162 13.625 17.375 C13.74101563 18.37273437 13.85703125 19.37046875 13.9765625 20.3984375 C13.98816406 21.68621094 13.98816406 21.68621094 14 23 C13.34 23.66 12.68 24.32 12 25 C8.875 24.625 8.875 24.625 6 24 C5.97421875 23.40832031 5.9484375 22.81664063 5.921875 22.20703125 C5.54643313 16.97644334 4.98857536 13.75395328 1 10 C0.01 9.67 -0.98 9.34 -2 9 C-2 8.34 -2 7.68 -2 7 C-12.30197529 7.17223977 -12.30197529 7.17223977 -21 12 C-21.66 12 -22.32 12 -23 12 C-23 12.99 -23 13.98 -23 15 C-23.66 15 -24.32 15 -25 15 C-25 18.3 -25 21.6 -25 25 C-27.375 25.625 -27.375 25.625 -30 26 C-32 24 -32 24 -32.2578125 21.49609375 C-31.94407335 14.27086579 -30.58491656 9.89560983 -25.359375 4.78125 C-17.83696235 -0.89792247 -9.04173417 -0.38264392 0 0 Z " fill="#24598B" transform="translate(51,59)"/>
<path d="M0 0 C0.86076645 -0.00540298 1.7215329 -0.01080597 2.60838318 -0.01637268 C5.44695673 -0.02885576 8.28451519 -0.01237184 11.12304688 0.00561523 C13.09932508 0.00546024 15.0756036 0.00397113 17.05187988 0.00120544 C21.19113626 -0.00017836 25.33004606 0.01237656 29.46923828 0.03515625 C34.77224449 0.06354069 40.07467488 0.06080325 45.37772369 0.04806614 C49.45783395 0.04110773 53.53781137 0.04890013 57.61790466 0.06132317 C59.57310985 0.06583608 61.5283293 0.06617587 63.48353577 0.06225777 C66.21718528 0.05934399 68.95004419 0.07586052 71.68359375 0.09765625 C72.89316994 0.09090378 72.89316994 0.09090378 74.12718201 0.08401489 C78.63087027 0.14361001 81.99847376 0.32048592 85.34179688 3.50170898 C85.94306946 6.51994324 85.94306946 6.51994324 85.90942383 10.26806641 C85.91015396 10.95125443 85.91088409 11.63444244 85.91163635 12.33833313 C85.90815412 14.59542389 85.86926913 16.85044787 85.83007812 19.10717773 C85.82075211 20.67229586 85.813635 22.23742859 85.80863953 23.80256653 C85.78955263 27.92113578 85.74043857 32.03882272 85.68511963 36.15704346 C85.63396283 40.35970116 85.6111332 44.56250151 85.5859375 48.76538086 C85.53232031 57.01122838 85.44698845 65.25635892 85.34179688 73.50170898 C85.01179688 73.50170898 84.68179688 73.50170898 84.34179688 73.50170898 C84.01179688 51.06170898 83.68179688 28.62170898 83.34179688 5.50170898 C82.35179688 5.00670898 82.35179688 5.00670898 81.34179688 4.50170898 C81.01179688 5.16170898 80.68179688 5.82170898 80.34179688 6.50170898 C79.84679687 5.01670898 79.84679687 5.01670898 79.34179688 3.50170898 C67.93712205 3.45539292 56.53246956 3.41984346 45.12771988 3.39808464 C39.83218313 3.38764214 34.53671068 3.37347437 29.24121094 3.35083008 C24.13190833 3.32911842 19.02266762 3.31714387 13.91332245 3.3119545 C11.96285782 3.30825573 10.01239663 3.30103309 8.06195831 3.29024887 C5.3325719 3.27575631 2.60344207 3.27373011 -0.12597656 3.2746582 C-0.93446045 3.26746765 -1.74294434 3.2602771 -2.57592773 3.25286865 C-6.74127696 3.26822089 -8.83554841 3.59038163 -12.65820312 5.50170898 C-12.65820312 28.27170898 -12.65820312 51.04170898 -12.65820312 74.50170898 C-11.99820312 74.50170898 -11.33820312 74.50170898 -10.65820312 74.50170898 C-10.32820312 75.16170898 -9.99820312 75.82170898 -9.65820312 76.50170898 C0.96418165 76.52487054 11.58656043 76.54264357 22.2089653 76.55352116 C27.14127239 76.55874161 32.07356222 76.56582413 37.00585938 76.57714844 C41.76502909 76.58800698 46.52418219 76.59399214 51.28336334 76.59658623 C53.09984855 76.59843511 54.91633284 76.60204546 56.73281097 76.60743904 C59.27534456 76.61468879 61.81780932 76.61569825 64.36035156 76.61523438 C65.48892075 76.62062729 65.48892075 76.62062729 66.64028931 76.62612915 C70.04429148 76.6194007 73.06768407 76.43014922 76.34179688 75.50170898 C78.59179688 75.93920898 78.59179688 75.93920898 80.34179688 76.50170898 C80.83679688 75.01670898 80.83679688 75.01670898 81.34179688 73.50170898 C81.34179688 74.16170898 81.34179688 74.82170898 81.34179688 75.50170898 C82.33179687 75.17170898 83.32179688 74.84170898 84.34179688 74.50170898 C83.84679687 75.98670898 83.84679687 75.98670898 83.34179688 77.50170898 C79.45000203 78.79897393 75.75214497 78.65741342 71.6953125 78.6628418 C70.81211838 78.6678067 69.92892426 78.67277161 69.01896667 78.67788696 C66.09531885 78.69250116 63.17172523 78.69930823 60.24804688 78.70483398 C58.21927895 78.71058464 56.19051105 78.71634238 54.16174316 78.72210693 C49.90811916 78.73261383 45.65451406 78.738459 41.40087891 78.74194336 C35.94298864 78.74743716 30.48534671 78.77148541 25.02753448 78.79991531 C20.8377407 78.81850876 16.64800723 78.82374546 12.45817566 78.82527924 C10.44547666 78.82831214 8.43277888 78.83636201 6.42012024 78.84946442 C3.60931273 78.8664613 0.79911886 78.86466068 -2.01171875 78.8581543 C-2.84713699 78.86736908 -3.68255524 78.87658386 -4.54328918 78.88607788 C-10.21763903 78.84479468 -10.21763903 78.84479468 -12.37075806 77.16807079 C-14.4282874 74.50497595 -14.05568332 72.01917851 -14.078125 68.70703125 C-14.08659454 68.02051483 -14.09506409 67.33399841 -14.10379028 66.62667847 C-14.12719212 64.35696902 -14.12818175 62.08793621 -14.12695312 59.81811523 C-14.13405292 58.24014514 -14.14175166 56.66217764 -14.15002441 55.08421326 C-14.16347656 51.77628402 -14.16503483 48.46859348 -14.15917969 45.16064453 C-14.1532833 40.92215717 -14.18386764 36.68481519 -14.22429657 32.44654942 C-14.25015106 29.18741184 -14.25305309 25.92855087 -14.24940491 22.66932487 C-14.25109835 21.10680195 -14.2607626 19.54426655 -14.27854919 17.98184395 C-14.30069668 15.79571108 -14.29106264 13.6119064 -14.2734375 11.42578125 C-14.27549194 10.18240494 -14.27754639 8.93902863 -14.27966309 7.65797424 C-13.65820312 4.50170898 -13.65820312 4.50170898 -11.66088867 2.10031128 C-7.74690749 0.01654353 -4.32613708 -0.05186729 0 0 Z " fill="#B6D2E6" transform="translate(25.658203125,14.498291015625)"/>
<path d="M0 0 C0.66 0.33 1.32 0.66 2 1 C2.33 1.99 2.66 2.98 3 4 C2.67 4.66 2.34 5.32 2 6 C2.66 5.67 3.32 5.34 4 5 C6.80730125 4.9067247 9.58961098 4.87424075 12.39697266 4.88647461 C13.69951241 4.88625557 13.69951241 4.88625557 15.02836609 4.8860321 C17.90695672 4.88673039 20.78548314 4.8945189 23.6640625 4.90234375 C25.65660568 4.90420823 27.64914931 4.90563199 29.64169312 4.90663147 C34.89259094 4.91045431 40.14346122 4.92028263 45.39434814 4.93133545 C50.74987414 4.94155457 56.10540457 4.94613017 61.4609375 4.95117188 C71.97397045 4.96190509 82.48698294 4.97897873 93 5 C93 5.33 93 5.66 93 6 C91.90419113 6.00586624 90.80838226 6.01173248 89.67936707 6.01777649 C79.36413884 6.0749316 69.0491229 6.14765521 58.73411083 6.23571491 C53.43074747 6.28048705 48.12746215 6.319728 42.82397461 6.34643555 C37.70803787 6.37240034 32.59240036 6.41275406 27.47664833 6.46318626 C25.52261381 6.47990127 23.56852747 6.4913866 21.61443138 6.49761391 C18.88220042 6.50720475 16.15074305 6.53520315 13.41870117 6.56762695 C12.60662201 6.56619186 11.79454285 6.56475677 10.95785522 6.5632782 C6.7125238 6.55760169 6.7125238 6.55760169 3.09883118 8.52702332 C2.73621689 9.01310562 2.3736026 9.49918793 2 10 C1.34 10 0.68 10 0 10 C0 32.77 0 55.54 0 79 C-0.66 79 -1.32 79 -2 79 C-2.33 56.23 -2.66 33.46 -3 10 C-3.99 10.495 -3.99 10.495 -5 11 C-5.33 34.1 -5.66 57.2 -6 81 C-6.66 80.67 -7.32 80.34 -8 80 C-8.04633899 70.81184947 -8.08187715 61.62373917 -8.10362434 52.43549728 C-8.11406186 48.16903303 -8.12822048 43.90264872 -8.15087891 39.63623047 C-8.17260842 35.51895614 -8.18456887 31.40175871 -8.18975449 27.28443146 C-8.19345005 25.71355224 -8.20066652 24.14267723 -8.21146011 22.57183075 C-8.22597658 20.37168784 -8.22797789 18.17186278 -8.22705078 15.97167969 C-8.231492 14.71925476 -8.23593323 13.46682983 -8.24050903 12.17645264 C-8.01350792 9.17840187 -7.58299537 7.51187743 -6 5 C-5.34 5 -4.68 5 -4 5 C-3.67 4.01 -3.34 3.02 -3 2 C-2.01 1.34 -1.02 0.68 0 0 Z " fill="#52759B" transform="translate(12,9)"/>
<path d="M0 0 C0 5.28 0 10.56 0 16 C-0.495 15.01 -0.495 15.01 -1 14 C-1.66 14 -2.32 14 -3 14 C-3.33 39.08 -3.66 64.16 -4 90 C-4.33 90 -4.66 90 -5 90 C-5.00808685 89.12160965 -5.01617371 88.2432193 -5.02450562 87.33821106 C-5.10249228 79.05445382 -5.18979537 70.7708582 -5.28752708 62.48730946 C-5.33744261 58.22879599 -5.38377302 53.97030677 -5.421875 49.71166992 C-5.45878781 45.6007559 -5.50516395 41.49004699 -5.55806351 37.3793087 C-5.57657562 35.81209605 -5.59169532 34.24483949 -5.60334396 32.67756081 C-5.62026114 30.4798959 -5.64930856 28.28269746 -5.68115234 26.08520508 C-5.69447601 24.83500076 -5.70779968 23.58479645 -5.7215271 22.29670715 C-5.99354922 19.07636771 -6.52783411 16.86082684 -8 14 C-9.30518475 12.96352976 -10.63461347 11.95577057 -12 11 C-12 10.34 -12 9.68 -12 9 C-43.35 8.67 -74.7 8.34 -107 8 C-107 7.67 -107 7.34 -107 7 C-105.93955475 6.98969254 -104.8791095 6.97938507 -103.78652954 6.96876526 C-93.80954784 6.87115431 -83.83263022 6.76843207 -73.85575294 6.66066074 C-68.72612308 6.60541542 -63.59648753 6.55199284 -58.46679688 6.50268555 C-53.51955462 6.45506574 -48.57238312 6.4027238 -43.62522507 6.34705925 C-41.73453907 6.32662488 -39.84383366 6.30791361 -37.95311356 6.29092598 C-35.31193247 6.26690591 -32.67088579 6.23684813 -30.02978516 6.20532227 C-29.24216293 6.1995668 -28.45454071 6.19381134 -27.64305115 6.18788147 C-23.69207078 6.21412356 -23.69207078 6.21412356 -20 5 C-20.99 4.505 -20.99 4.505 -22 4 C-22 3.01 -22 2.02 -22 1 C-14.61694543 -0.00109214 -7.45195235 -0.0784416 0 0 Z " fill="#DBE8EE" transform="translate(123,0)"/>
<path d="M0 0 C27.06 0 54.12 0 82 0 C82 0.66 82 1.32 82 2 C84.475 1.505 84.475 1.505 87 1 C86.34 1.33 85.68 1.66 85 2 C85 2.99 85 3.98 85 5 C38.965 5.495 38.965 5.495 -8 6 C-8 5.34 -8 4.68 -8 4 C4.87 3.67 17.74 3.34 31 3 C28.15464275 1.57732138 25.63781448 1.78028131 22.4609375 1.68359375 C21.15898438 1.64169922 19.85703125 1.59980469 18.515625 1.55664062 C17.13541955 1.51682701 15.75521117 1.47711478 14.375 1.4375 C12.98696585 1.39430593 11.59894472 1.35069135 10.2109375 1.30664062 C6.80739744 1.20028 3.40378222 1.09825286 0 1 C0 0.67 0 0.34 0 0 Z " fill="#0E3E6D" transform="translate(22,9)"/>
<path d="M0 0 C0 0.66 0 1.32 0 2 C-0.969375 2.12375 -1.93875 2.2475 -2.9375 2.375 C-3.948125 2.58125 -4.95875 2.7875 -6 3 C-6.33 3.66 -6.66 4.32 -7 5 C-6.01 5.33 -5.02 5.66 -4 6 C-33.04 6 -62.08 6 -92 6 C-91.34 5.67 -90.68 5.34 -90 5 C-90 4.34 -90 3.68 -90 3 C-63.27 3 -36.54 3 -9 3 C-36.72 2.67 -64.44 2.34 -93 2 C-93 1.67 -93 1.34 -93 1 C-81.16961621 0.86948735 -69.33923113 0.7390922 -57.50884438 0.60884857 C-52.01598675 0.54837263 -46.52312959 0.48785566 -41.03027344 0.42724609 C-35.73295571 0.36879564 -30.43563683 0.31045143 -25.13831711 0.25218201 C-23.11364068 0.22989209 -21.08896467 0.20756339 -19.06428909 0.18519592 C-16.23638264 0.15396133 -13.40847472 0.12286257 -10.58056641 0.09179688 C-9.31497643 0.07777077 -9.31497643 0.07777077 -8.02381897 0.0634613 C-2.22810432 0 -2.22810432 0 0 0 Z " fill="#0A3A67" transform="translate(109,93)"/>
<path d="M0 0 C-0.33 1.98 -0.66 3.96 -1 6 C-1.66 6 -2.32 6 -3 6 C-3 6.99 -3 7.98 -3 9 C-4.32 9 -5.64 9 -7 9 C-7 11.97 -7 14.94 -7 18 C-8.65 18 -10.3 18 -12 18 C-11.34 19.32 -10.68 20.64 -10 22 C26.63 22.495 26.63 22.495 64 23 C64 23.33 64 23.66 64 24 C36.94 24 9.88 24 -18 24 C-18.33 23.01 -18.66 22.02 -19 21 C-19.66 21 -20.32 21 -21 21 C-20.8590651 18.56212615 -20.71245458 16.12482147 -20.5625 13.6875 C-20.52318359 12.99720703 -20.48386719 12.30691406 -20.44335938 11.59570312 C-20.25072585 8.52838465 -19.97677283 5.93031848 -19 3 C-18.34 3 -17.68 3 -17 3 C-17 3.66 -17 4.32 -17 5 C-16.01 4.67 -15.02 4.34 -14 4 C-14 7.63 -14 11.26 -14 15 C-12.35 15.33 -10.7 15.66 -9 16 C-8.67 12.7 -8.34 9.4 -8 6 C-7.34 6 -6.68 6 -6 6 C-6 5.01 -6 4.02 -6 3 C-2.66666667 0 -2.66666667 0 0 0 Z " fill="#E1F9FE" transform="translate(34,68)"/>
<path d="M0 0 C1.19328049 2.38656097 0.97850908 3.6118017 0.8125 6.25 C0.7747002 10.95985559 1.81804034 13.39936144 5 17 C9.29928525 20.79936836 12.42635099 21.41951525 17.94921875 21.23828125 C20.19708586 21.04798427 20.19708586 21.04798427 23 20 C24.00642948 18.67151309 25.00692179 17.33849671 26 16 C26.66 16 27.32 16 28 16 C29.06723961 12.53777385 29.10173486 9.35960734 29.0625 5.75 C29.05347656 4.67234375 29.04445313 3.5946875 29.03515625 2.484375 C29.02355469 1.66453125 29.01195313 0.8446875 29 0 C29.66 0.33 30.32 0.66 31 1 C31.31526837 3.63219343 31.51405369 6.17059091 31.625 8.8125 C31.68300781 9.90014648 31.68300781 9.90014648 31.7421875 11.00976562 C31.9130783 14.34518779 32 17.65961473 32 21 C30.5 22.625 30.5 22.625 29 24 C29 24.66 29 25.32 29 26 C29.969375 26.61875 30.93875 27.2375 31.9375 27.875 C35 30 35 30 35.875 32.25 C35.91625 32.8275 35.9575 33.405 36 34 C35.01 34.33 34.02 34.66 33 35 C30.73828125 33.85546875 30.73828125 33.85546875 28.3125 32.1875 C27.50425781 31.64480469 26.69601563 31.10210937 25.86328125 30.54296875 C25.24839844 30.03378906 24.63351563 29.52460937 24 29 C24 28.34 24 27.68 24 27 C17.4 27.66 10.8 28.32 4 29 C4.33 28.34 4.66 27.68 5 27 C7.16467461 26.37330801 9.35864524 25.84572626 11.5625 25.375 C12.76003906 25.11460938 13.95757812 24.85421875 15.19140625 24.5859375 C16.11824219 24.39257812 17.04507813 24.19921875 18 24 C17.38511719 24.04640625 16.77023438 24.0928125 16.13671875 24.140625 C13.70445981 24.24924262 11.41893357 24.28940812 9 24 C7.1875 22.0625 7.1875 22.0625 6 20 C5.34 19.855625 4.68 19.71125 4 19.5625 C2 19 2 19 0.390625 16.88671875 C-1.27145499 13.43650215 -1.33621843 11.06085444 -1.25 7.25 C-1.23453125 6.10015625 -1.2190625 4.9503125 -1.203125 3.765625 C-1 1 -1 1 0 0 Z " fill="#E7F0F6" transform="translate(27,32)"/>
<path d="M0 0 C3 0 3 0 5 1.875 C5.66 2.57625 6.32 3.2775 7 4 C10.72786063 6.48524042 13.64185328 6.30666017 17.9597168 6.31884766 C18.76970123 6.32889328 19.57968567 6.3389389 20.41421509 6.34928894 C23.0925424 6.38018937 25.77076944 6.39717504 28.44921875 6.4140625 C30.30582038 6.43276864 32.16241347 6.45234163 34.01899719 6.4727478 C38.90649379 6.52413357 43.79401797 6.56372477 48.68164062 6.60089111 C53.66868957 6.64089039 58.65562313 6.6920013 63.64257812 6.7421875 C73.42830444 6.83902308 83.21409581 6.92340342 93 7 C92.67 7.66 92.34 8.32 92 9 C81.88187997 9.02315071 71.76376622 9.04092905 61.64562511 9.05181217 C56.94757846 9.05703501 52.24954991 9.06412183 47.55151367 9.07543945 C43.01928339 9.08628956 38.48707053 9.09228136 33.95482826 9.09487724 C32.2240401 9.09672765 30.49325291 9.10034093 28.76247215 9.10573006 C26.34187113 9.11296862 23.9213425 9.11398974 21.50073242 9.11352539 C20.42287476 9.1189183 20.42287476 9.1189183 19.32324219 9.12442017 C16.26562905 9.11805582 13.92597252 8.97532417 11 8 C11 8.66 11 9.32 11 10 C8.875 10.75 8.875 10.75 6 11 C2.39549224 9.16240781 0.44843271 7.89686542 -1.375 4.25 C-1.58125 3.5075 -1.7875 2.765 -2 2 C-1.34 1.34 -0.68 0.68 0 0 Z " fill="#134877" transform="translate(8,88)"/>
<path d="M0 0 C12.20426183 -0.02314385 24.40851846 -0.04092555 36.61279774 -0.05181217 C42.2793893 -0.05703651 47.94596589 -0.06412606 53.61254883 -0.07543945 C59.07845393 -0.08628422 64.5443446 -0.09228023 70.01025963 -0.09487724 C72.09830643 -0.09672861 74.18635241 -0.10034374 76.27439308 -0.10573006 C79.19311878 -0.11296152 82.1117844 -0.11399004 85.03051758 -0.11352539 C85.89870117 -0.11712067 86.76688477 -0.12071594 87.66137695 -0.12442017 C91.02626298 -0.11860221 93.7852094 -0.07159687 97 1 C97 1.66 97 2.32 97 3 C97.99 3.495 97.99 3.495 99 4 C98.01 4 97.02 4 96 4 C96 3.34 96 2.68 96 2 C94.02 2.33 92.04 2.66 90 3 C90 2.34 90 1.68 90 1 C72.51 1.33 55.02 1.66 37 2 C37.99 2.66 38.98 3.32 40 4 C39 5 39 5 35.39819336 5.11352539 C33.79540144 5.11336625 32.1926044 5.10767063 30.58984375 5.09765625 C29.74780899 5.0962413 28.90577423 5.09482635 28.03822327 5.09336853 C25.33794665 5.08775263 22.63775172 5.07519748 19.9375 5.0625 C18.11132932 5.05748705 16.28515734 5.05292379 14.45898438 5.04882812 C9.97262458 5.03777804 5.48632616 5.02050279 1 5 C1 4.34 1 3.68 1 3 C0.34 2.67 -0.32 2.34 -1 2 C-0.67 1.34 -0.34 0.68 0 0 Z " fill="#0A467B" transform="translate(14,8)"/>
<path d="M0 0 C2.86172906 1.62164647 3.01830187 3.06344647 3.9375 6.25 C4.01870711 11.12242666 2.68551066 13.01242356 0 17 C-1.43655854 17.08131463 -2.8744483 17.13933559 -4.3125 17.1875 C-5.51326172 17.23970703 -5.51326172 17.23970703 -6.73828125 17.29296875 C-9 17 -9 17 -10.73828125 15.69921875 C-12.80819618 12.91156242 -12.88237435 10.41114392 -13 7 C-10.20153797 0.70346042 -6.70429373 -0.59859765 0 0 Z " fill="#EAFCFE" transform="translate(46,30)"/>
<path d="M0 0 C0.33 0.66 0.66 1.32 1 2 C4.02934491 2.65772428 4.02934491 2.65772428 7 3 C6.360625 3.515625 5.72125 4.03125 5.0625 4.5625 C2.35997965 7.75638769 2.07283388 9.84846877 2 14 C2.73948997 16.98257918 2.73948997 16.98257918 5 19 C7.7327363 19.72621929 10.14555674 19.85961754 13 20 C12.67 20.99 12.34 21.98 12 23 C12.99 23.33 13.98 23.66 15 24 C14.67 24.66 14.34 25.32 14 26 C4.32480383 26.86044235 4.32480383 26.86044235 0.5625 23.8125 C-3.91780631 18.89509064 -5.51802761 15.79797976 -5.296875 9.15234375 C-4.74436521 5.1466478 -2.7792459 2.7792459 0 0 Z " fill="#2C5385" transform="translate(32,27)"/>
<path d="M0 0 C9.57 0 19.14 0 29 0 C29 1.98 29 3.96 29 6 C26.29903923 7.35048039 24.17273483 7.12963577 21.15234375 7.1328125 C19.99025391 7.13410156 18.82816406 7.13539062 17.63085938 7.13671875 C16.41205078 7.13285156 15.19324219 7.12898438 13.9375 7.125 C12.71482422 7.12886719 11.49214844 7.13273437 10.23242188 7.13671875 C9.07162109 7.13542969 7.91082031 7.13414063 6.71484375 7.1328125 C5.64355225 7.13168457 4.57226074 7.13055664 3.46850586 7.12939453 C1 7 1 7 0 6 C0 4.02 0 2.04 0 0 Z " fill="#1A477A" transform="translate(72,37)"/>
<path d="M0 0 C3.99452176 1.36955032 6.92159754 3.0926199 10 6 C10.8125 8.25 10.8125 8.25 11 10 C11.66 10 12.32 10 13 10 C13.22151549 11.79008467 13.42682213 13.58218162 13.625 15.375 C13.79902344 16.87160156 13.79902344 16.87160156 13.9765625 18.3984375 C13.98429687 19.25695312 13.99203125 20.11546875 14 21 C13.34 21.66 12.68 22.32 12 23 C8.875 22.625 8.875 22.625 6 22 C5.97421875 21.40832031 5.9484375 20.81664063 5.921875 20.20703125 C5.54643313 14.97644334 4.98857536 11.75395328 1 8 C0.01 7.67 -0.98 7.34 -2 7 C-2 6.34 -2 5.68 -2 5 C-6.95 5.33 -11.9 5.66 -17 6 C-16.67 5.34 -16.34 4.68 -16 4 C-11.38 4 -6.76 4 -2 4 C-2 3.34 -2 2.68 -2 2 C-1.34 2 -0.68 2 0 2 C0 1.34 0 0.68 0 0 Z " fill="#14487D" transform="translate(51,61)"/>
<path d="M0 0 C-0.75796875 0.53173828 -0.75796875 0.53173828 -1.53125 1.07421875 C-4.92242645 3.85309945 -6.79137425 5.75890518 -7.53515625 10.18359375 C-7.57734281 15.49307358 -7.51172179 20.2128508 -5 25 C-3.34178227 25.37309899 -1.67422986 25.70700977 0 26 C1.3125 28.0625 1.3125 28.0625 2 30 C2.66 29.67 3.32 29.34 4 29 C6.6723621 28.86584528 9.32250488 28.95681459 12 29 C11.67 29.66 11.34 30.32 11 31 C8.49609375 31.6328125 8.49609375 31.6328125 5.4375 32.125 C4.42558594 32.29257812 3.41367187 32.46015625 2.37109375 32.6328125 C1.58863281 32.75398438 0.80617188 32.87515625 0 33 C-0.495 31.515 -0.495 31.515 -1 30 C-1.763125 29.87625 -2.52625 29.7525 -3.3125 29.625 C-6 29 -6 29 -9 27 C-10.12050151 23.63849548 -10.13296652 21.03713274 -10.125 17.5 C-10.12757812 16.3553125 -10.13015625 15.210625 -10.1328125 14.03125 C-10 11 -10 11 -9 8 C-9.66 8 -10.32 8 -11 8 C-10.34 6.35 -9.68 4.7 -9 3 C-9.66 3 -10.32 3 -11 3 C-11 2.01 -11 1.02 -11 0 C-10.34 0 -9.68 0 -9 0 C-9 0.66 -9 1.32 -9 2 C-8.34 2 -7.68 2 -7 2 C-7 1.34 -7 0.68 -7 0 C-3.86650268 -1.04449911 -3.01031744 -0.93423645 0 0 Z " fill="#E8FBFC" transform="translate(34,26)"/>
<path d="M0 0 C2.95857409 -0.05379226 5.91617721 -0.09357093 8.875 -0.125 C9.71675781 -0.14175781 10.55851562 -0.15851562 11.42578125 -0.17578125 C12.23144531 -0.18222656 13.03710938 -0.18867187 13.8671875 -0.1953125 C14.98262939 -0.21102295 14.98262939 -0.21102295 16.12060547 -0.22705078 C18 0 18 0 20 2 C20 3.32 20 4.64 20 6 C16.70322112 7.64838944 13.05683956 7.14272738 9.4375 7.125 C8.64408203 7.12886719 7.85066406 7.13273437 7.03320312 7.13671875 C1.12663067 7.12663067 1.12663067 7.12663067 0 6 C-0.04080783 4.00041636 -0.04254356 1.99954746 0 0 Z " fill="#385979" transform="translate(72,51)"/>
<path d="M0 0 C0.66 0 1.32 0 2 0 C2 0.66 2 1.32 2 2 C2.66 2 3.32 2 4 2 C3.99333817 2.9034465 3.98667633 3.80689301 3.97981262 4.73771667 C3.91967193 13.2567782 3.87401051 21.77576829 3.84456348 30.2949934 C3.82891546 34.67470045 3.80769304 39.0542319 3.77368164 43.43383789 C3.74105726 47.66135189 3.72314049 51.88869711 3.71536827 56.11632729 C3.70983028 57.728261 3.69901585 59.34018559 3.68280983 60.95204735 C3.66099418 63.21196747 3.65803473 65.47119249 3.65942383 67.73120117 C3.64943108 69.65980232 3.64943108 69.65980232 3.63923645 71.62736511 C4.02274621 75.21264524 4.90800865 77.10587247 7 80 C4.92446352 80.5534764 3.15634036 81 1 81 C0.67 78.36 0.34 75.72 0 73 C0.66 73 1.32 73 2 73 C1.67 50.56 1.34 28.12 1 5 C0.34 5 -0.32 5 -1 5 C-0.67 3.35 -0.34 1.7 0 0 Z " fill="#DFF3F8" transform="translate(1,14)"/>
<path d="M0 0 C0 1.32 0 2.64 0 4 C-0.66 4 -1.32 4 -2 4 C-2 4.66 -2 5.32 -2 6 C-2.96421875 6.06058594 -3.9284375 6.12117188 -4.921875 6.18359375 C-6.18515625 6.26738281 -7.4484375 6.35117188 -8.75 6.4375 C-10.00296875 6.51871094 -11.2559375 6.59992188 -12.546875 6.68359375 C-15.18317553 6.92515522 -17.48037294 7.24283934 -20 8 C-20 6.02 -20 4.04 -20 2 C-13.38190423 -0.46254726 -6.99560484 -0.18935472 0 0 Z " fill="#1A4F7B" transform="translate(51,59)"/>
<path d="M0 0 C12.20426183 -0.02314385 24.40851846 -0.04092555 36.61279774 -0.05181217 C42.2793893 -0.05703651 47.94596589 -0.06412606 53.61254883 -0.07543945 C59.07845393 -0.08628422 64.5443446 -0.09228023 70.01025963 -0.09487724 C72.09830643 -0.09672861 74.18635241 -0.10034374 76.27439308 -0.10573006 C79.19311878 -0.11296152 82.1117844 -0.11399004 85.03051758 -0.11352539 C85.89870117 -0.11712067 86.76688477 -0.12071594 87.66137695 -0.12442017 C91.02626298 -0.11860221 93.7852094 -0.07159687 97 1 C97 1.66 97 2.32 97 3 C97.99 3.495 97.99 3.495 99 4 C98.01 4 97.02 4 96 4 C96 3.34 96 2.68 96 2 C94.02 2.33 92.04 2.66 90 3 C90 2.34 90 1.68 90 1 C60.3 1 30.6 1 0 1 C0 0.67 0 0.34 0 0 Z " fill="#436989" transform="translate(14,8)"/>
<path d="M0 0 C1.77503906 0.03480469 1.77503906 0.03480469 3.5859375 0.0703125 C5.36871094 0.09738281 5.36871094 0.09738281 7.1875 0.125 C8.10273437 0.14820312 9.01796875 0.17140625 9.9609375 0.1953125 C9.9609375 0.8553125 9.9609375 1.5153125 9.9609375 2.1953125 C10.5384375 2.2571875 11.1159375 2.3190625 11.7109375 2.3828125 C15.09332938 3.60423179 16.1534688 5.09679473 17.9609375 8.1953125 C18.28596022 11.22716505 18.19905601 14.1593015 17.9609375 17.1953125 C19.96048496 17.23785606 21.96135386 17.23612033 23.9609375 17.1953125 C25.37671227 16.01106924 25.37671227 16.01106924 25.0234375 12.6328125 C24.9925 10.93125 24.9925 10.93125 24.9609375 9.1953125 C25.6209375 9.5253125 26.2809375 9.8553125 26.9609375 10.1953125 C27.31901172 16.52129043 27.31901172 16.52129043 25.8984375 19.1953125 C22.82758537 20.78026844 20.23906975 19.87567957 16.9609375 19.1953125 C16.9609375 15.8953125 16.9609375 12.5953125 16.9609375 9.1953125 C15.3109375 9.1953125 13.6609375 9.1953125 11.9609375 9.1953125 C9.7734375 7.2578125 9.7734375 7.2578125 7.9609375 5.1953125 C7.3009375 4.8653125 6.6409375 4.5353125 5.9609375 4.1953125 C5.9609375 3.5353125 5.9609375 2.8753125 5.9609375 2.1953125 C2.3309375 2.1953125 -1.2990625 2.1953125 -5.0390625 2.1953125 C-3.0390625 0.1953125 -3.0390625 0.1953125 0 0 Z " fill="#CDE0EE" transform="translate(39.0390625,65.8046875)"/>
<path d="M0 0 C1.19328049 2.38656097 0.97850908 3.6118017 0.8125 6.25 C0.7747002 10.95985559 1.81804034 13.39936144 5 17 C9.26890359 20.77251946 12.36613284 21.42112891 17.8515625 21.23828125 C19.9759889 21.00266305 21.94290044 20.57245078 24 20 C24.33 21.32 24.66 22.64 25 24 C24.01 24 23.02 24 22 24 C22 24.99 22 25.98 22 27 C13.09 27.99 13.09 27.99 4 29 C4.33 28.34 4.66 27.68 5 27 C7.16467461 26.37330801 9.35864524 25.84572626 11.5625 25.375 C12.76003906 25.11460938 13.95757812 24.85421875 15.19140625 24.5859375 C16.11824219 24.39257812 17.04507813 24.19921875 18 24 C17.38511719 24.04640625 16.77023438 24.0928125 16.13671875 24.140625 C13.70445981 24.24924262 11.41893357 24.28940812 9 24 C7.1875 22.0625 7.1875 22.0625 6 20 C5.34 19.855625 4.68 19.71125 4 19.5625 C2 19 2 19 0.390625 16.88671875 C-1.27145499 13.43650215 -1.33621843 11.06085444 -1.25 7.25 C-1.23453125 6.10015625 -1.2190625 4.9503125 -1.203125 3.765625 C-1 1 -1 1 0 0 Z " fill="#B2D1E1" transform="translate(27,32)"/>
<path d="M0 0 C2.1519437 3.22791555 2.20086443 4.28400809 2 8 C2.66 8 3.32 8 4 8 C4.33 7.34 4.66 6.68 5 6 C6.375 8.5625 6.375 8.5625 7 12 C4.77793012 15.89059921 2.26219913 18.57926696 -2 20 C-3.56118428 20.06740865 -5.1250252 20.08514456 -6.6875 20.0625 C-7.89986328 20.04896484 -7.89986328 20.04896484 -9.13671875 20.03515625 C-9.75160156 20.02355469 -10.36648437 20.01195313 -11 20 C-11 19.67 -11 19.34 -11 19 C-7.04 18.505 -7.04 18.505 -3 18 C-3.66 16.68 -4.32 15.36 -5 14 C-4.360625 13.360625 -3.72125 12.72125 -3.0625 12.0625 C-0.38087365 8.08069118 -0.20501996 4.705208 0 0 Z " fill="#33567D" transform="translate(49,34)"/>
<path d="M0 0 C1.2463623 0.05236816 2.49272461 0.10473633 3.77685547 0.15869141 C4.43990692 0.18371735 5.10295837 0.20874329 5.78610229 0.23452759 C7.90593312 0.31676657 10.02483734 0.41333755 12.14404297 0.51025391 C13.58020291 0.56848972 15.01640099 0.62579309 16.45263672 0.68212891 C19.97527899 0.82234933 23.49722957 0.97542991 27.01904297 1.13525391 C27.01904297 1.46525391 27.01904297 1.79525391 27.01904297 2.13525391 C18.10904297 2.13525391 9.19904297 2.13525391 0.01904297 2.13525391 C0.34904297 4.11525391 0.67904297 6.09525391 1.01904297 8.13525391 C13.88904297 8.63025391 13.88904297 8.63025391 27.01904297 9.13525391 C27.01904297 9.46525391 27.01904297 9.79525391 27.01904297 10.13525391 C16.3523763 10.13525391 5.68570964 10.13525391 -4.98095703 10.13525391 C-5.17626953 4.08056641 -5.17626953 4.08056641 -4.98095703 2.13525391 C-2.98095703 0.13525391 -2.98095703 0.13525391 0 0 Z " fill="#BDD5E4" transform="translate(71.98095703125,34.86474609375)"/>
<path d="M0 0 C9.57 0 19.14 0 29 0 C29 1.98 29 3.96 29 6 C26.28598706 7.35700647 24.15153684 7.1123861 21.1171875 7.09765625 C19.95058594 7.09443359 18.78398438 7.09121094 17.58203125 7.08789062 C16.35871094 7.07951172 15.13539062 7.07113281 13.875 7.0625 C12.64394531 7.05798828 11.41289063 7.05347656 10.14453125 7.04882812 C7.09630608 7.0370133 4.04817686 7.02054028 1 7 C0.67 6.34 0.34 5.68 0 5 C6.27 5 12.54 5 19 5 C19 4.01 19 3.02 19 2 C20.299375 2.020625 21.59875 2.04125 22.9375 2.0625 C24.29165633 2.08399454 25.64756083 2.07148199 27 2 C27.33 1.67 27.66 1.34 28 1 C18.76 1 9.52 1 0 1 C0 0.67 0 0.34 0 0 Z " fill="#436991" transform="translate(72,37)"/>
<path d="M0 0 C6.36427851 -0.36024218 6.36427851 -0.36024218 8.875 1.0625 C10.65612137 4.12998681 10.94091657 6.45499449 11 10 C9.91741445 12.60528766 8.58988022 14.63926877 7 17 C5.56344146 17.08131463 4.1255517 17.13933559 2.6875 17.1875 C1.48673828 17.23970703 1.48673828 17.23970703 0.26171875 17.29296875 C-2 17 -2 17 -3.7421875 15.70703125 C-5.76168117 12.96628985 -5.82142373 10.33342379 -6 7 C-5.34 6.01 -4.68 5.02 -4 4 C-4 6.64 -4 9.28 -4 12 C-2.68 12 -1.36 12 0 12 C0 12.66 0 13.32 0 14 C2.31 14 4.62 14 7 14 C7 12.68 7 11.36 7 10 C7.66 10 8.32 10 9 10 C9 8.35 9 6.7 9 5 C8.34 5 7.68 5 7 5 C6.67 4.01 6.34 3.02 6 2 C3.03 1.505 3.03 1.505 0 1 C0 0.67 0 0.34 0 0 Z " fill="#9EC2DF" transform="translate(39,30)"/>
<path d="M0 0 C13.2 0 26.4 0 40 0 C40.66 1.32 41.32 2.64 42 4 C41.39373779 3.93433838 40.78747559 3.86867676 40.1628418 3.80102539 C31.72212341 2.95454392 23.28618654 2.6773675 14.8125 2.4375 C13.36913147 2.39418434 11.92577197 2.35056654 10.48242188 2.30664062 C6.98837827 2.20095142 3.49423102 2.09932418 0 2 C0 1.34 0 0.68 0 0 Z " fill="#0C437E" transform="translate(62,10)"/>
<path d="M0 0 C0.33 0 0.66 0 1 0 C1 22.77 1 45.54 1 69 C-1.475 69.99 -1.475 69.99 -4 71 C-4 69.68 -4 68.36 -4 67 C-2.68 67 -1.36 67 0 67 C0 44.89 0 22.78 0 0 Z " fill="#E1FCFE" transform="translate(109,20)"/>
<path d="M0 0 C0.66 0 1.32 0 2 0 C2.33 1.32 2.66 2.64 3 4 C9.27 4 15.54 4 22 4 C22.33 2.68 22.66 1.36 23 0 C22.67 2.31 22.34 4.62 22 7 C18.17189179 8.27603607 14.76524893 7.86283987 10.8125 7.5625 C10.06291016 7.51029297 9.31332031 7.45808594 8.54101562 7.40429688 C6.69362918 7.27486216 4.84675629 7.13813482 3 7 C2.67 7.99 2.34 8.98 2 10 C0.62437146 8.71034824 -0.70766393 7.37310707 -2 6 C-2 5.34 -2 4.68 -2 4 C-1.34 4 -0.68 4 0 4 C0 2.68 0 1.36 0 0 Z " fill="#D7E7EC" transform="translate(70,53)"/>
<path d="M0 0 C0.66 0 1.32 0 2 0 C2 0.66 2 1.32 2 2 C2.66 2 3.32 2 4 2 C4 1.34 4 0.68 4 0 C7.3 0.33 10.6 0.66 14 1 C13.67 1.99 13.34 2.98 13 4 C13.99 4.33 14.98 4.66 16 5 C15.67 5.66 15.34 6.32 15 7 C6.07559008 7.62384225 6.07559008 7.62384225 1.875 5.1875 C0 3 0 3 0 0 Z " fill="#1D4477" transform="translate(31,46)"/>
<path d="M0 0 C0 1.65 0 3.3 0 5 C-1.32 5.33 -2.64 5.66 -4 6 C-3.67 7.98 -3.34 9.96 -3 12 C-2.34 12 -1.68 12 -1 12 C-0.34 11.34 0.32 10.68 1 10 C1 12.64 1 15.28 1 18 C-1.375 18.625 -1.375 18.625 -4 19 C-6 17 -6 17 -6.1171875 14.35546875 C-5.01972873 0 -5.01972873 0 0 0 Z " fill="#415E74" transform="translate(25,66)"/>
<path d="M0 0 C0.66 0 1.32 0 2 0 C2 1.65 2 3.3 2 5 C2.99 5 3.98 5 5 5 C5 8.63 5 12.26 5 16 C3.35 15.67 1.7 15.34 0 15 C-0.19517554 13.06325815 -0.38087873 11.12555991 -0.5625 9.1875 C-0.66691406 8.10855469 -0.77132812 7.02960938 -0.87890625 5.91796875 C-1 3 -1 3 0 0 Z " fill="#0F3E6F" transform="translate(58,68)"/>
<path d="M0 0 C0.33 0 0.66 0 1 0 C1.00586624 0.63449066 1.01173248 1.26898132 1.01777649 1.92269897 C1.08156152 8.50866026 1.16594167 15.0941261 1.26245117 21.6796875 C1.29576766 24.13958212 1.32377836 26.59955442 1.34643555 29.05957031 C1.37985781 32.5895305 1.43216766 36.11877434 1.48828125 39.6484375 C1.49467117 40.75367767 1.5010611 41.85891785 1.50764465 42.99765015 C1.52743881 44.01855743 1.54723297 45.03946472 1.56762695 46.09130859 C1.57873001 46.99287689 1.58983307 47.89444519 1.60127258 48.82333374 C1.73285263 49.54163361 1.86443268 50.25993347 2 51 C2.99 51.66 3.98 52.32 5 53 C4.67 53.66 4.34 54.32 4 55 C2.66666667 55 1.33333333 55 0 55 C0 36.85 0 18.7 0 0 Z " fill="#114279" transform="translate(6,35)"/>
<path d="M0 0 C-0.49371094 0.38929687 -0.98742188 0.77859375 -1.49609375 1.1796875 C-5.50231651 4.67807921 -7.44519365 7.02982242 -7.9375 12.4375 C-7.9896042 13.95758329 -8.02142007 15.47917482 -8 17 C-10 14 -10 14 -9.625 10.8125 C-9.41875 9.884375 -9.2125 8.95625 -9 8 C-9.66 8 -10.32 8 -11 8 C-10.34 6.35 -9.68 4.7 -9 3 C-9.66 3 -10.32 3 -11 3 C-11 2.01 -11 1.02 -11 0 C-10.34 0 -9.68 0 -9 0 C-9 0.66 -9 1.32 -9 2 C-8.34 2 -7.68 2 -7 2 C-7 1.34 -7 0.68 -7 0 C-3.86650268 -1.04449911 -3.01031744 -0.93423645 0 0 Z " fill="#E2F6FD" transform="translate(34,26)"/>
<path d="M0 0 C1.79244141 0.01740234 1.79244141 0.01740234 3.62109375 0.03515625 C5.41740234 0.04869141 5.41740234 0.04869141 7.25 0.0625 C8.17683594 0.07410156 9.10367188 0.08570313 10.05859375 0.09765625 C10.05859375 1.08765625 10.05859375 2.07765625 10.05859375 3.09765625 C10.71859375 3.42765625 11.37859375 3.75765625 12.05859375 4.09765625 C6.77859375 4.09765625 1.49859375 4.09765625 -3.94140625 4.09765625 C-3.94140625 0.13085678 -3.94140625 0.13085678 0 0 Z " fill="#D5F4FE" transform="translate(77.94140625,46.90234375)"/>
<path d="M0 0 C3.73487777 0.4979837 5.81237635 0.87491756 9 3 C8.34 4.98 7.68 6.96 7 9 C4.69 8.34 2.38 7.68 0 7 C0.33 6.01 0.66 5.02 1 4 C0.34 4 -0.32 4 -1 4 C-0.67 2.68 -0.34 1.36 0 0 Z " fill="#FAFBF9" transform="translate(37,33)"/>
<path d="M0 0 C0.66 0.33 1.32 0.66 2 1 C2.8715865 3.6873917 3.11494012 5.48276947 2.5 8.25 C1 10 1 10 -2.625 10.75 C-3.73875 10.8325 -4.8525 10.915 -6 11 C-5.44509362 7.67056175 -4.79000672 4.88389972 -3 2 C-2.01 1.34 -1.02 0.68 0 0 Z " fill="#1F4774" transform="translate(12,9)"/>
<path d="M0 0 C-0.33 1.98 -0.66 3.96 -1 6 C-1.66 6 -2.32 6 -3 6 C-3 6.99 -3 7.98 -3 9 C-4.32 9 -5.64 9 -7 9 C-7 11.97 -7 14.94 -7 18 C-9.31 18 -11.62 18 -14 18 C-14 17.01 -14 16.02 -14 15 C-12.35 15.33 -10.7 15.66 -9 16 C-8.67 12.7 -8.34 9.4 -8 6 C-7.34 6 -6.68 6 -6 6 C-6 5.01 -6 4.02 -6 3 C-2.66666667 0 -2.66666667 0 0 0 Z " fill="#C0D8E7" transform="translate(34,68)"/>
<path d="M0 0 C0.66 0 1.32 0 2 0 C2 0.66 2 1.32 2 2 C2.99 1.67 3.98 1.34 5 1 C4.67 4.63 4.34 8.26 4 12 C3.01 11.67 2.02 11.34 1 11 C1 10.34 1 9.68 1 9 C0.34 9 -0.32 9 -1 9 C-0.67 6.03 -0.34 3.06 0 0 Z " fill="#D5EEF6" transform="translate(15,71)"/>
<path d="M0 0 C1.44010481 0.25662245 2.8770687 0.53090821 4.3125 0.8125 C5.11300781 0.96332031 5.91351563 1.11414062 6.73828125 1.26953125 C9.23445587 2.07572236 10.32422106 3.02052002 12 5 C11 8 11 8 9 9 C7.491987 8.07544441 5.99375083 7.1349253 4.5 6.1875 C3.6646875 5.66542969 2.829375 5.14335938 1.96875 4.60546875 C0.99421875 3.81076172 0.99421875 3.81076172 0 3 C0 2.01 0 1.02 0 0 Z " fill="#D6E3EE" transform="translate(51,58)"/>
<path d="M0 0 C0.33 0 0.66 0 1 0 C1 1.98 1 3.96 1 6 C1.99 6 2.98 6 4 6 C4 6.66 4 7.32 4 8 C4.99 7.67 5.98 7.34 7 7 C8.0625 9.375 8.0625 9.375 9 12 C8.67 12.66 8.34 13.32 8 14 C7.34 14 6.68 14 6 14 C6 13.34 6 12.68 6 12 C5.34 12 4.68 12 4 12 C3.67 12.66 3.34 13.32 3 14 C-0.53286034 9.43672206 -0.32374517 5.50366792 0 0 Z " fill="#184290" transform="translate(27,34)"/>
<path d="M0 0 C2.08368538 0.31014392 4.16693668 0.6232052 6.25 0.9375 C7.41015625 1.11152344 8.5703125 1.28554688 9.765625 1.46484375 C12.23106961 1.8727736 14.59424562 2.33901303 17 3 C17 2.01 17 1.02 17 0 C17.99 0.33 18.98 0.66 20 1 C19.67 1.99 19.34 2.98 19 4 C16.20826945 4.02690104 13.41679652 4.04679053 10.625 4.0625 C9.43390625 4.07506836 9.43390625 4.07506836 8.21875 4.08789062 C2.2265625 4.11328125 2.2265625 4.11328125 0 3 C0 2.01 0 1.02 0 0 Z " fill="#223D5E" transform="translate(72,39)"/>
<path d="M0 0 C2.1519437 3.22791555 2.20086443 4.28400809 2 8 C2.66 8 3.32 8 4 8 C4.33 7.34 4.66 6.68 5 6 C5.73080266 7.97746603 6.39421747 9.98072489 7 12 C6.67 12.66 6.34 13.32 6 14 C5.34 14 4.68 14 4 14 C4 13.34 4 12.68 4 12 C1.69 12 -0.62 12 -3 12 C-2.505 11.13375 -2.01 10.2675 -1.5 9.375 C0.0477761 5.89250377 0.26802896 3.75240542 0 0 Z " fill="#36679B" transform="translate(49,34)"/>
<path d="M0 0 C1.32 0 2.64 0 4 0 C4.66 2.31 5.32 4.62 6 7 C5.34 7.66 4.68 8.32 4 9 C3.01 8.67 2.02 8.34 1 8 C1 7.01 1 6.02 1 5 C0.01 5 -0.98 5 -2 5 C-1.125 1.125 -1.125 1.125 0 0 Z " fill="#F4F0EE" transform="translate(17,61)"/>
<path d="M0 0 C0.33 0 0.66 0 1 0 C1.33 2.64 1.66 5.28 2 8 C1.34 8 0.68 8 0 8 C0 8.66 0 9.32 0 10 C-2.31 9.67 -4.62 9.34 -7 9 C-5.38405168 6.95880212 -3.7143618 4.95927063 -2 3 C-1.34 3 -0.68 3 0 3 C0 2.01 0 1.02 0 0 Z " fill="#D0E0EA" transform="translate(117,90)"/>
<path d="M0 0 C0.99 0.33 1.98 0.66 3 1 C2.67 1.99 2.34 2.98 2 4 C1.34 4 0.68 4 0 4 C0 4.66 0 5.32 0 6 C-0.66 6 -1.32 6 -2 6 C-2 7.32 -2 8.64 -2 10 C-2.99 10.33 -3.98 10.66 -5 11 C-5.3125 7.75 -5.3125 7.75 -5 4 C-2.6875 1.5 -2.6875 1.5 0 0 Z " fill="#F1F7F6" transform="translate(72,47)"/>
<path d="M0 0 C0 0.33 0 0.66 0 1 C-1.65 1 -3.3 1 -5 1 C-5 1.66 -5 2.32 -5 3 C-4.01 3 -3.02 3 -2 3 C-2 3.66 -2 4.32 -2 5 C-4.90600261 6.25664978 -6.79604584 7 -10 7 C-10 5.02 -10 3.04 -10 1 C-6.78548731 -0.60725635 -3.56387464 -0.05748185 0 0 Z " fill="#15426F" transform="translate(41,60)"/>
<path d="M0 0 C1.19328049 2.38656097 0.97850908 3.6118017 0.8125 6.25 C0.74618647 12.15190376 3.27679365 15.18105997 7.25 19.375 C7.8275 19.91125 8.405 20.4475 9 21 C2.52005719 19.65510621 2.52005719 19.65510621 0.28515625 16.83984375 C-1.25808034 13.42971305 -1.33435715 10.9785862 -1.25 7.25 C-1.23453125 6.10015625 -1.2190625 4.9503125 -1.203125 3.765625 C-1 1 -1 1 0 0 Z " fill="#9EBFDD" transform="translate(27,32)"/>
<path d="M0 0 C1.32 0 2.64 0 4 0 C4 0.66 4 1.32 4 2 C4.99 2.33 5.98 2.66 7 3 C6.67 3.99 6.34 4.98 6 6 C3.36 6 0.72 6 -2 6 C-2 5.34 -2 4.68 -2 4 C-1.34 4 -0.68 4 0 4 C0 2.68 0 1.36 0 0 Z " fill="#FEF6EC" transform="translate(41,68)"/>
<path d="M0 0 C0.33 0 0.66 0 1 0 C1.1968121 2.04079005 1.38202831 4.08270007 1.5625 6.125 C1.66691406 7.26195312 1.77132812 8.39890625 1.87890625 9.5703125 C1.99608016 12.88897993 1.6655072 15.7562686 1 19 C0.34 19 -0.32 19 -1 19 C-1.02683987 16.02077407 -1.04676037 13.04178705 -1.0625 10.0625 C-1.07087891 9.21236328 -1.07925781 8.36222656 -1.08789062 7.48632812 C-1.09111328 6.67744141 -1.09433594 5.86855469 -1.09765625 5.03515625 C-1.10289307 4.2862915 -1.10812988 3.53742676 -1.11352539 2.76586914 C-1 1 -1 1 0 0 Z " fill="#0B416A" transform="translate(113,29)"/>
<path d="M0 0 C2.01822917 0.06510417 4.03645833 0.13020833 6.0546875 0.1953125 C6.3846875 1.5153125 6.7146875 2.8353125 7.0546875 4.1953125 C2.5996875 3.2053125 2.5996875 3.2053125 -1.9453125 2.1953125 C-2.2753125 3.5153125 -2.6053125 4.8353125 -2.9453125 6.1953125 C-2.2853125 6.1953125 -1.6253125 6.1953125 -0.9453125 6.1953125 C-0.9453125 6.8553125 -0.9453125 7.5153125 -0.9453125 8.1953125 C-1.9353125 7.8653125 -2.9253125 7.5353125 -3.9453125 7.1953125 C-4.0703125 4.8203125 -4.0703125 4.8203125 -3.9453125 2.1953125 C-1.9453125 0.1953125 -1.9453125 0.1953125 0 0 Z " fill="#DDEEF6" transform="translate(38.9453125,30.8046875)"/>
<path d="M0 0 C0.99 0.33 1.98 0.66 3 1 C2.01 2.65 1.02 4.3 0 6 C0.66 6 1.32 6 2 6 C1.67 6.66 1.34 7.32 1 8 C0.01 7.67 -0.98 7.34 -2 7 C-2 6.34 -2 5.68 -2 5 C-6.95 5.33 -11.9 5.66 -17 6 C-16.67 5.34 -16.34 4.68 -16 4 C-11.38 4 -6.76 4 -2 4 C-2 3.34 -2 2.68 -2 2 C-1.34 2 -0.68 2 0 2 C0 1.34 0 0.68 0 0 Z " fill="#406F9B" transform="translate(51,61)"/>
<path d="M0 0 C0.33 0.66 0.66 1.32 1 2 C1.99 2 2.98 2 4 2 C4 4.64 4 7.28 4 10 C3.34 10 2.68 10 2 10 C2 9.34 2 8.68 2 8 C1.01 8 0.02 8 -1 8 C-1.04241723 5.66705225 -1.04092937 3.33297433 -1 1 C-0.67 0.67 -0.34 0.34 0 0 Z " fill="#163F6A" transform="translate(29,32)"/>
<path d="M0 0 C0.0825 0.61875 0.165 1.2375 0.25 1.875 C0.78810733 4.18346804 0.78810733 4.18346804 3 5 C5 6 5 6 5.75 8.125 C5.87375 9.053125 5.87375 9.053125 6 10 C5.443125 9.71125 4.88625 9.4225 4.3125 9.125 C1.97193593 7.94039559 1.97193593 7.94039559 -0.6875 7 C-3 6 -3 6 -4 4 C-3.34 4 -2.68 4 -2 4 C-2 3.01 -2 2.02 -2 1 C-1.34 0.67 -0.68 0.34 0 0 Z " fill="#22507E" transform="translate(109,10)"/>
<path d="M0 0 C0.66 0 1.32 0 2 0 C3.20272819 2.40545638 3.10071472 3.94996953 3.0625 6.625 C3.05347656 7.44226562 3.04445313 8.25953125 3.03515625 9.1015625 C3.02355469 9.72804688 3.01195312 10.35453125 3 11 C2.01 11.495 2.01 11.495 1 12 C1 10.35 1 8.7 1 7 C0.34 7 -0.32 7 -1 7 C-1.04254356 5.00045254 -1.04080783 2.99958364 -1 1 C-0.67 0.67 -0.34 0.34 0 0 Z " fill="#0D4273" transform="translate(53,33)"/>
<path d="M0 0 C1.5 1.375 1.5 1.375 3 3 C3 3.66 3 4.32 3 5 C3.66 5 4.32 5 5 5 C5.33 8.63 5.66 12.26 6 16 C5.34 16.33 4.68 16.66 4 17 C3.67 13.7 3.34 10.4 3 7 C2.01 7.33 1.02 7.66 0 8 C0 5.36 0 2.72 0 0 Z " fill="#4C6D93" transform="translate(59,66)"/>
<path d="M0 0 C0.66 0 1.32 0 2 0 C2 0.66 2 1.32 2 2 C2.639375 2.2475 3.27875 2.495 3.9375 2.75 C6 4 6 4 6.75 6.125 C6.8325 6.74375 6.915 7.3625 7 8 C5 8 3 8 1 8 C0.67 5.36 0.34 2.72 0 0 Z " fill="#D7E3F2" transform="translate(1,87)"/>
<path d="M0 0 C0.99 0 1.98 0 3 0 C4.6875 2 4.6875 2 6 4 C5.360625 4.103125 4.72125 4.20625 4.0625 4.3125 C3.381875 4.539375 2.70125 4.76625 2 5 C1.67 5.99 1.34 6.98 1 8 C0.01 6.35 -0.98 4.7 -2 3 C-1.34 2.01 -0.68 1.02 0 0 Z " fill="#244D78" transform="translate(8,88)"/>
<path d="M0 0 C2.97 0.495 2.97 0.495 6 1 C6.33 1.99 6.66 2.98 7 4 C6.34 4.66 5.68 5.32 5 6 C3.68 6 2.36 6 1 6 C0.67 4.02 0.34 2.04 0 0 Z " fill="#FDFAED" transform="translate(35,82)"/>
<path d="M0 0 C-1.30986273 1.16962686 -2.6229626 2.33562944 -3.9375 3.5 C-4.66839844 4.1496875 -5.39929688 4.799375 -6.15234375 5.46875 C-8 7 -8 7 -9 7 C-9.3125 4.6875 -9.3125 4.6875 -9 2 C-5.69088913 -0.75759239 -4.02985981 -1.25717849 0 0 Z " fill="#D1EDFA" transform="translate(32,60)"/>
<path d="M0 0 C0.33 0 0.66 0 1 0 C0.67 2.31 0.34 4.62 0 7 C-3.62447925 7 -7.1393962 6.7888483 -10.75 6.5 C-12.50570312 6.36078125 -12.50570312 6.36078125 -14.296875 6.21875 C-15.18890625 6.1465625 -16.0809375 6.074375 -17 6 C-17 5.67 -17 5.34 -17 5 C-8.585 4.505 -8.585 4.505 0 4 C0 2.68 0 1.36 0 0 Z " fill="#B6CDDE" transform="translate(92,53)"/>
<path d="M0 0 C0.99 0.66 1.98 1.32 3 2 C3.40843923 4.71203652 3.13336867 7.2437142 3 10 C2.01 9.34 1.02 8.68 0 8 C-1.98 8.99 -1.98 8.99 -4 10 C-2.62845496 7.04590299 -1.01136276 4.55991624 1 2 C0.34 1.67 -0.32 1.34 -1 1 C-0.67 0.67 -0.34 0.34 0 0 Z " fill="#FBF2F4" transform="translate(59,48)"/>
<path d="M0 0 C0.66 0 1.32 0 2 0 C2.66 2.97 3.32 5.94 4 9 C2.68 9.33 1.36 9.66 0 10 C-0.95024979 6.30458414 -0.95024979 3.69541586 0 0 Z " fill="#EBF5F7" transform="translate(65,66)"/>
<path d="M0 0 C3.63 0 7.26 0 11 0 C11 0.99 11 1.98 11 3 C8.03 3 5.06 3 2 3 C2 2.34 2 1.68 2 1 C1.34 0.67 0.68 0.34 0 0 Z " fill="#134577" transform="translate(76,52)"/>
<path d="M0 0 C-2.97 2.475 -2.97 2.475 -6 5 C-6.33 3.35 -6.66 1.7 -7 0 C-3.86650268 -1.04449911 -3.01031744 -0.93423645 0 0 Z M-11 0 C-10.34 0 -9.68 0 -9 0 C-9 0.66 -9 1.32 -9 2 C-8.34 2.33 -7.68 2.66 -7 3 C-8.32 3 -9.64 3 -11 3 C-11 2.01 -11 1.02 -11 0 Z " fill="#D8EAF7" transform="translate(34,26)"/>
<path d="M0 0 C0.33 2.31 0.66 4.62 1 7 C0.4225 6.360625 -0.155 5.72125 -0.75 5.0625 C-5.56040091 2.00974558 -10.40562954 2.17844882 -16 2 C-16 1.67 -16 1.34 -16 1 C-13.70839646 0.83246763 -11.41671509 0.66599948 -9.125 0.5 C-7.84882812 0.4071875 -6.57265625 0.314375 -5.2578125 0.21875 C-3.50763316 0.10123196 -1.75412035 0 0 0 Z " fill="#C7DCEE" transform="translate(53,22)"/>
<path d="M0 0 C1.98 0 3.96 0 6 0 C6 0.66 6 1.32 6 2 C6.66 2.33 7.32 2.66 8 3 C7.67 3.33 7.34 3.66 7 4 C4.30917128 3.82364548 1.67148554 3.38164079 -1 3 C-0.67 2.01 -0.34 1.02 0 0 Z " fill="#1D517D" transform="translate(103,95)"/>
<path d="M0 0 C0 0.99 0 1.98 0 3 C-2.64 3 -5.28 3 -8 3 C-8.33 2.34 -8.66 1.68 -9 1 C-5.64919071 -1.10976881 -3.77897651 -1.0497157 0 0 Z " fill="#1A3E68" transform="translate(46,50)"/>
<path d="M0 0 C6.36427851 -0.36024218 6.36427851 -0.36024218 8.875 1.0625 C10.58112046 4.00081858 10.81989972 6.63812807 11 10 C10.01 11.485 10.01 11.485 9 13 C9 10.36 9 7.72 9 5 C8.34 5 7.68 5 7 5 C6.67 4.01 6.34 3.02 6 2 C3.03 1.505 3.03 1.505 0 1 C0 0.67 0 0.34 0 0 Z " fill="#A2C8E1" transform="translate(39,30)"/>
<path d="M0 0 C0.33 0 0.66 0 1 0 C1.03738281 0.84304687 1.07476562 1.68609375 1.11328125 2.5546875 C1.17902344 3.65039062 1.24476563 4.74609375 1.3125 5.875 C1.37050781 6.96554688 1.42851563 8.05609375 1.48828125 9.1796875 C1.74158203 10.57574219 1.74158203 10.57574219 2 12 C2.99 12.66 3.98 13.32 5 14 C4.67 14.66 4.34 15.32 4 16 C2.66666667 16 1.33333333 16 0 16 C0 10.72 0 5.44 0 0 Z " fill="#0D3C71" transform="translate(6,74)"/>
<path d="M0 0 C0.33 0 0.66 0 1 0 C1 1.98 1 3.96 1 6 C1.99 6 2.98 6 4 6 C4 6.66 4 7.32 4 8 C4.99 7.67 5.98 7.34 7 7 C7 7.66 7 8.32 7 9 C5.68 9 4.36 9 3 9 C2.34 9.66 1.68 10.32 1 11 C-0.20272819 8.59454362 -0.10071472 7.05003047 -0.0625 4.375 C-0.05347656 3.55773438 -0.04445313 2.74046875 -0.03515625 1.8984375 C-0.02355469 1.27195313 -0.01195313 0.64546875 0 0 Z " fill="#2D5A9A" transform="translate(27,34)"/>
<path d="M0 0 C0.33 0 0.66 0 1 0 C1 1.65 1 3.3 1 5 C-0.32 5.33 -1.64 5.66 -3 6 C-3 7.65 -3 9.3 -3 11 C-3.33 11 -3.66 11 -4 11 C-4.36243301 7.1038451 -4.28893695 5.42874515 -2.0625 2.125 C-1.0415625 1.073125 -1.0415625 1.073125 0 0 Z " fill="#456F94" transform="translate(24,66)"/>
<path d="M0 0 C2.475 0.495 2.475 0.495 5 1 C5 5.29 5 9.58 5 14 C4.67 14 4.34 14 4 14 C3.96261719 13.40832031 3.92523438 12.81664063 3.88671875 12.20703125 C3.48623099 7.39332549 2.9614965 3.99158223 0 0 Z " fill="#3E6A94" transform="translate(53,69)"/>
<path d="M0 0 C1.32 0.33 2.64 0.66 4 1 C4 1.99 4 2.98 4 4 C3.34 4 2.68 4 2 4 C2 4.66 2 5.32 2 6 C2.99 6.33 3.98 6.66 5 7 C3.35 6.67 1.7 6.34 0 6 C0 4.02 0 2.04 0 0 Z " fill="#2D547A" transform="translate(58,77)"/>
<path d="M0 0 C2.31 0 4.62 0 7 0 C6.6875 1.9375 6.6875 1.9375 6 4 C5.01 4.33 4.02 4.66 3 5 C3 4.34 3 3.68 3 3 C2.01 3 1.02 3 0 3 C0 2.01 0 1.02 0 0 Z " fill="#ECF9FE" transform="translate(14,68)"/>
<path d="M0 0 C2.97 0 5.94 0 9 0 C9 0.99 9 1.98 9 3 C6.03 2.67 3.06 2.34 0 2 C0 1.34 0 0.68 0 0 Z " fill="#F6F1F0" transform="translate(101,1)"/>
<path d="M0 0 C1.65 0.33 3.3 0.66 5 1 C5 2.32 5 3.64 5 5 C4.01 5 3.02 5 2 5 C2 4.34 2 3.68 2 3 C1.01 2.67 0.02 2.34 -1 2 C-0.67 1.34 -0.34 0.68 0 0 Z " fill="#FCF7EE" transform="translate(39,35)"/>
<path d="M0 0 C1.98 0 3.96 0 6 0 C3.03716687 2.38672669 0.05729491 4.7353371 -3 7 C-3 5.68 -3 4.36 -3 3 C-2.01 3 -1.02 3 0 3 C0 2.01 0 1.02 0 0 Z " fill="#D1EDFA" transform="translate(10,7)"/>
<path d="M0 0 C0.66 0 1.32 0 2 0 C0.52307692 5.66153846 0.52307692 5.66153846 -2.125 7.375 C-3.053125 7.684375 -3.053125 7.684375 -4 8 C-4 6.02 -4 4.04 -4 2 C-3.34 2.66 -2.68 3.32 -2 4 C-1.34 2.68 -0.68 1.36 0 0 Z " fill="#0C3C65" transform="translate(25,72)"/>
<path d="M0 0 C0 1.98 0 3.96 0 6 C-1.65 5.67 -3.3 5.34 -5 5 C-5 4.01 -5 3.02 -5 2 C-2 0 -2 0 0 0 Z " fill="#084076" transform="translate(30,64)"/>
<path d="M0 0 C0 0.66 0 1.32 0 2 C-4.455 2.495 -4.455 2.495 -9 3 C-8.67 2.01 -8.34 1.02 -8 0 C-5.13822943 -1.43088528 -3.06624227 -0.59991697 0 0 Z " fill="#E2F7FD" transform="translate(44,21)"/>
<path d="M0 0 C0.66 0.33 1.32 0.66 2 1 C2 2.32 2 3.64 2 5 C1.01 4.67 0.02 4.34 -1 4 C-1.99 4.33 -2.98 4.66 -4 5 C-3 2 -3 2 0 0 Z " fill="#366AA0" transform="translate(12,9)"/>
<path d="M0 0 C0.99 0.33 1.98 0.66 3 1 C3.33 2.65 3.66 4.3 4 6 C2.125 5.75 2.125 5.75 0 5 C-1.25 2.9375 -1.25 2.9375 -2 1 C-1.34 0.67 -0.68 0.34 0 0 Z " fill="#255480" transform="translate(112,87)"/>
<path d="M0 0 C0.99 0.33 1.98 0.66 3 1 C2.67 1.99 2.34 2.98 2 4 C1.34 4 0.68 4 0 4 C-0.33 4.66 -0.66 5.32 -1 6 C-1 5.34 -1 4.68 -1 4 C-1.66 4 -2.32 4 -3 4 C-2.67 3.01 -2.34 2.02 -2 1 C-1.34 0.67 -0.68 0.34 0 0 Z " fill="#E5F5FA" transform="translate(72,47)"/>
<path d="M0 0 C0.66 0 1.32 0 2 0 C2 1.65 2 3.3 2 5 C0.02 5.66 -1.96 6.32 -4 7 C-3.34 6.01 -2.68 5.02 -2 4 C-1.34 4 -0.68 4 0 4 C0 2.68 0 1.36 0 0 Z " fill="#E7F0F6" transform="translate(67,79)"/>
<path d="M0 0 C0.99 0.33 1.98 0.66 3 1 C3 1.66 3 2.32 3 3 C3.99 3.33 4.98 3.66 6 4 C3.36 3.67 0.72 3.34 -2 3 C-2 2.34 -2 1.68 -2 1 C-1.34 0.67 -0.68 0.34 0 0 Z " fill="#0C3869" transform="translate(35,26)"/>
</svg>
