<?xml version="1.0" encoding="UTF-8"?>
<svg version="1.1" xmlns="http://www.w3.org/2000/svg" width="75" height="75">
<path d="M0 0 C2.125 0.9375 2.125 0.9375 4 2 C3.42124463 5.61345964 2.07667113 7.29846442 -0.4921875 9.85546875 C-1.19730469 10.55994141 -1.90242188 11.26441406 -2.62890625 11.99023438 C-3.37011719 12.71533203 -4.11132812 13.44042969 -4.875 14.1875 C-5.60847656 14.92419922 -6.34195313 15.66089844 -7.09765625 16.41992188 C-12.59927618 21.86642539 -12.59927618 21.86642539 -16 23 C-17.9375 21.671875 -17.9375 21.671875 -20 19.75 C-20.680625 19.12609375 -21.36125 18.5021875 -22.0625 17.859375 C-22.701875 17.24578125 -23.34125 16.6321875 -24 16 C-24.58394531 15.47277344 -25.16789062 14.94554687 -25.76953125 14.40234375 C-26.17558594 13.93957031 -26.58164062 13.47679687 -27 13 C-26.6875 10.8125 -26.6875 10.8125 -26 9 C-21.68607774 9.4793247 -19.83430453 10.7457985 -17 14 C-12.95864413 12.40069566 -10.32092848 9.51339591 -7.375 6.4375 C-2.23986486 1.11993243 -2.23986486 1.11993243 0 0 Z " fill="#004A91" transform="translate(49,26)"/>
<path d="M0 0 C2.0625 0.4375 2.0625 0.4375 4 1 C4.75679172 13.42820181 4.75679172 13.42820181 2.375 18.375 C-3.17962585 21.04944948 -8.9475009 20.36855543 -15 20 C-15.5625 18.0625 -15.5625 18.0625 -16 16 C-14.12175109 14.12175109 -10.96064724 14.60897603 -8.4375 14.4375 C-7.23996094 14.35371094 -6.04242188 14.26992188 -4.80859375 14.18359375 C-3.88175781 14.12300781 -2.95492187 14.06242187 -2 14 C-1.93941406 13.07316406 -1.87882812 12.14632812 -1.81640625 11.19140625 C-1.73261719 9.99386719 -1.64882813 8.79632813 -1.5625 7.5625 C-1.48128906 6.36753906 -1.40007813 5.17257813 -1.31640625 3.94140625 C-1 1 -1 1 0 0 Z " fill="#004993" transform="translate(63,47)"/>
<path d="M0 0 C1.98 0.495 1.98 0.495 4 1 C4.33 5.29 4.66 9.58 5 14 C9.29 14.33 13.58 14.66 18 15 C18.33 16.32 18.66 17.64 19 19 C17.07229125 20.92770875 13.81648514 20.30577945 11.25 20.375 C7.00057575 20.30576295 4.47524193 20.22882019 0.625 18.375 C-2.03516329 12.85004546 -1.55193954 7.02402588 -1 1 C-0.67 0.67 -0.34 0.34 0 0 Z " fill="#004A93" transform="translate(9,47)"/>
<path d="M0 0 C4.24942425 0.06923705 6.77475807 0.14617981 10.625 2 C13.29944948 7.55462585 12.61855543 13.3225009 12.25 19.375 C10.3125 19.9375 10.3125 19.9375 8.25 20.375 C5.69946069 17.82446069 6.4600099 9.46514574 6.25 6.375 C1.96 6.045 -2.33 5.715 -6.75 5.375 C-7.08 4.055 -7.41 2.735 -7.75 1.375 C-5.82229125 -0.55270875 -2.56648514 0.06922055 0 0 Z " fill="#004A93" transform="translate(54.75,7.625)"/>
<path d="M0 0 C0.5625 1.9375 0.5625 1.9375 1 4 C-1.55053931 6.55053931 -9.90985426 5.7899901 -13 6 C-13.33 10.29 -13.66 14.58 -14 19 C-15.32 19.33 -16.64 19.66 -18 20 C-19.92770875 18.07229125 -19.30577945 14.81648514 -19.375 12.25 C-19.30576295 8.00057575 -19.22882019 5.47524193 -17.375 1.625 C-11.82037415 -1.04944948 -6.0524991 -0.36855543 0 0 Z " fill="#004A93" transform="translate(27,8)"/>
</svg>
